<svg xmlns="http://www.w3.org/2000/svg" viewBox="0 0 116.57 101.33"><title>biotech</title><g id="Layer_2" data-name="Layer 2"><g id="Layer_1-2" data-name="Layer 1"><path d="M80,54.61c-.38-5.68.44-7.9.44-7.9s-4.36,1.38-7,2.43c-2.44,1-9.32,4.19-10,11.14a18.67,18.67,0,0,0,.77,8c.5-1,1-2,1.56-2.91q1.23-2.17,2.58-4.26c.89-1.4,1.85-2.75,2.84-4.07s2.06-2.59,3.16-3.81c-1,1.33-1.9,2.69-2.74,4.1S70,60.12,69.24,61.58s-1.44,2.94-2.1,4.43c-.47,1.09-.93,2.19-1.35,3.29a18.67,18.67,0,0,0,8.69-2.95C78,63.9,80.34,60.29,80,54.61Z" style="fill:#0d69a7"/><path d="M59.63,64.66q-1.82-3-3.45-6.16c-1.1-2.08-2.1-4.21-3-6.36s-1.75-4.35-2.5-6.57c.9,2.16,1.86,4.29,3,6.35S55.83,56,57.06,58s2.5,3.93,3.84,5.83c1,1.44,2.06,2.87,3.14,4.25a26.71,26.71,0,0,0,2.84-13.17c-.44-6.14-3.21-11.55-10.45-15.17s-9.36-6.22-9.36-6.22-1.45,6.33-2,10.27c-.54,3.7-1.58,14.44,6.47,20.27a25.89,25.89,0,0,0,10.83,4.89C61.4,67.53,60.5,66.11,59.63,64.66Z" style="fill:#0d69a7"/><g id="ellipses"><ellipse cx="61.97" cy="50.66" rx="23.69" ry="53.36" transform="translate(-15.59 30.87) rotate(-24.95)" style="fill:none;stroke:#0d69a7;stroke-miterlimit:10;stroke-width:2.5px"/><ellipse cx="61.97" cy="50.66" rx="23.69" ry="53.36" transform="translate(9.96 111.51) rotate(-88.75)" style="fill:none;stroke:#010101;stroke-miterlimit:10;stroke-width:2.5px"/><ellipse cx="61.97" cy="50.66" rx="53.36" ry="23.69" transform="translate(-12.19 80.78) rotate(-61.37)" style="fill:none;stroke:#bebec0;stroke-miterlimit:10;stroke-width:2.5px"/></g><g id="circle_m"><path d="M93.08,4.08A6.12,6.12,0,1,1,87,10.2a6.12,6.12,0,0,1,6.12-6.12m0-2.5a8.62,8.62,0,1,0,8.62,8.62,8.63,8.63,0,0,0-8.62-8.62Z" style="fill:#fff"/><circle cx="93.08" cy="10.2" r="6.12" style="fill:#0d69a7;stroke:#0d151a;stroke-miterlimit:10;stroke-width:2.5px"/></g><g id="circle_l"><path d="M8.62,40.64A6.12,6.12,0,1,1,2.5,46.75a6.12,6.12,0,0,1,6.12-6.12m0-2.5a8.62,8.62,0,1,0,8.62,8.62,8.63,8.63,0,0,0-8.62-8.62Z" style="fill:#fff"/><circle cx="8.62" cy="46.75" r="6.12" style="fill:#bebec0;stroke:#030303;stroke-miterlimit:10;stroke-width:2.5px"/></g><g id="circle_r"><path d="M93.08,80.2A6.12,6.12,0,1,1,87,86.31a6.12,6.12,0,0,1,6.12-6.12m0-2.5a8.62,8.62,0,1,0,8.62,8.62,8.63,8.63,0,0,0-8.62-8.62Z" style="fill:#fff"/><circle cx="93.08" cy="86.31" r="6.12" style="fill:#bebec0;stroke:#010101;stroke-miterlimit:10;stroke-width:2.5px"/></g></g></g></svg>