<svg xmlns="http://www.w3.org/2000/svg" viewBox="0 0 116.57 101.33"><title>medtech</title><g id="Layer_2" data-name="Layer 2"><g id="Layer_1-2" data-name="Layer 1"><g id="ellipses"><ellipse cx="61.97" cy="50.66" rx="23.69" ry="53.36" transform="translate(-15.59 30.87) rotate(-24.95)" style="fill:none;stroke:#0d69a7;stroke-miterlimit:10;stroke-width:2.5px"/><ellipse cx="61.97" cy="50.66" rx="23.69" ry="53.36" transform="translate(9.96 111.51) rotate(-88.75)" style="fill:none;stroke:#010101;stroke-miterlimit:10;stroke-width:2.5px"/><ellipse cx="61.97" cy="50.66" rx="53.36" ry="23.69" transform="translate(-12.19 80.78) rotate(-61.37)" style="fill:none;stroke:#bebec0;stroke-miterlimit:10;stroke-width:2.5px"/></g><circle id="circle_big" cx="61.97" cy="50.66" r="14.84" style="fill:#0d69a7;stroke:#010101;stroke-miterlimit:10;stroke-width:2.5px"/><g id="circle_m"><path d="M93.08,4.08A6.12,6.12,0,1,1,87,10.2a6.12,6.12,0,0,1,6.12-6.12m0-2.5a8.62,8.62,0,1,0,8.62,8.62,8.63,8.63,0,0,0-8.62-8.62Z" style="fill:#fff"/><circle cx="93.08" cy="10.2" r="6.12" style="fill:#0d69a7;stroke:#0d151a;stroke-miterlimit:10;stroke-width:2.5px"/></g><g id="circle_l"><path d="M8.62,40.64A6.12,6.12,0,1,1,2.5,46.75a6.12,6.12,0,0,1,6.12-6.12m0-2.5a8.62,8.62,0,1,0,8.62,8.62,8.63,8.63,0,0,0-8.62-8.62Z" style="fill:#fff"/><circle cx="8.62" cy="46.75" r="6.12" style="fill:#bebec0;stroke:#030303;stroke-miterlimit:10;stroke-width:2.5px"/></g><g id="circle_r"><path d="M93.08,80.2A6.12,6.12,0,1,1,87,86.31a6.12,6.12,0,0,1,6.12-6.12m0-2.5a8.62,8.62,0,1,0,8.62,8.62,8.63,8.63,0,0,0-8.62-8.62Z" style="fill:#fff"/><circle cx="93.08" cy="86.31" r="6.12" style="fill:#bebec0;stroke:#010101;stroke-miterlimit:10;stroke-width:2.5px"/></g></g></g></svg>