<svg xmlns="http://www.w3.org/2000/svg" viewBox="0 0 135.49 163.72"><title>building</title><g id="Layer_2" data-name="Layer 2"><g id="Layer_1-2" data-name="Layer 1"><path d="M98.8,14.11h0A2.82,2.82,0,0,0,96,16.94V48h5.65V16.94A2.82,2.82,0,0,0,98.8,14.11Z" style="fill:#afb9d2"/><path d="M110.09,25.4h0a2.82,2.82,0,0,0-2.82,2.82V59.28h5.65V28.23A2.82,2.82,0,0,0,110.09,25.4Z" style="fill:#afb9d2"/><path d="M90.33,42.34H127a2.82,2.82,0,0,1,2.82,2.82V160.9H90.33Z" style="fill:#c8d0e2"/><rect x="90.33" y="149.61" width="39.52" height="11.29" style="fill:#afb9d2"/><rect x="87.51" y="138.31" width="42.34" height="5.65" style="fill:#afb9d2"/><rect x="118.56" y="138.31" width="5.65" height="5.65" style="fill:#8f96ab"/><rect x="95.97" y="138.31" width="5.65" height="5.65" style="fill:#8f96ab"/><rect x="107.26" y="138.31" width="5.65" height="5.65" style="fill:#8f96ab"/><rect x="87.51" y="127.02" width="42.34" height="5.65" style="fill:#afb9d2"/><rect x="118.56" y="127.02" width="5.65" height="5.65" style="fill:#8f96ab"/><rect x="95.97" y="127.02" width="5.65" height="5.65" style="fill:#8f96ab"/><rect x="107.26" y="127.02" width="5.65" height="5.65" style="fill:#8f96ab"/><rect x="87.51" y="115.73" width="42.34" height="5.65" style="fill:#afb9d2"/><rect x="118.56" y="115.73" width="5.65" height="5.65" style="fill:#8f96ab"/><rect x="95.97" y="115.73" width="5.65" height="5.65" style="fill:#8f96ab"/><rect x="107.26" y="115.73" width="5.65" height="5.65" style="fill:#8f96ab"/><rect x="87.51" y="104.44" width="42.34" height="5.65" style="fill:#afb9d2"/><rect x="118.56" y="104.44" width="5.65" height="5.65" style="fill:#8f96ab"/><rect x="95.97" y="104.44" width="5.65" height="5.65" style="fill:#8f96ab"/><rect x="107.26" y="104.44" width="5.65" height="5.65" style="fill:#8f96ab"/><rect x="87.51" y="93.15" width="42.34" height="5.65" style="fill:#afb9d2"/><rect x="118.56" y="93.15" width="5.65" height="5.65" style="fill:#8f96ab"/><rect x="95.97" y="93.15" width="5.65" height="5.65" style="fill:#8f96ab"/><rect x="107.26" y="93.15" width="5.65" height="5.65" style="fill:#8f96ab"/><rect x="87.51" y="81.86" width="42.34" height="5.65" style="fill:#afb9d2"/><rect x="118.56" y="81.86" width="5.65" height="5.65" style="fill:#8f96ab"/><rect x="95.97" y="81.86" width="5.65" height="5.65" style="fill:#8f96ab"/><rect x="107.26" y="81.86" width="5.65" height="5.65" style="fill:#8f96ab"/><rect x="87.51" y="70.57" width="42.34" height="5.65" style="fill:#afb9d2"/><rect x="118.56" y="70.57" width="5.65" height="5.65" style="fill:#8f96ab"/><rect x="95.97" y="70.57" width="5.65" height="5.65" style="fill:#8f96ab"/><rect x="107.26" y="70.57" width="5.65" height="5.65" style="fill:#8f96ab"/><rect x="87.51" y="59.28" width="42.34" height="5.65" style="fill:#afb9d2"/><rect x="118.56" y="59.28" width="5.65" height="5.65" style="fill:#8f96ab"/><rect x="95.97" y="59.28" width="5.65" height="5.65" style="fill:#8f96ab"/><rect x="107.26" y="59.28" width="5.65" height="5.65" style="fill:#8f96ab"/><rect x="87.51" y="47.99" width="42.34" height="5.65" style="fill:#afb9d2"/><rect x="118.56" y="47.99" width="5.65" height="5.65" style="fill:#8f96ab"/><rect x="95.97" y="47.99" width="5.65" height="5.65" style="fill:#8f96ab"/><rect x="107.26" y="47.99" width="5.65" height="5.65" style="fill:#8f96ab"/><path d="M90.33,160.9H5.65V2.82A2.82,2.82,0,0,1,8.47,0h79a2.82,2.82,0,0,1,2.82,2.82Z" style="fill:#afb9d2"/><path d="M14.11,132.67h0a2.82,2.82,0,0,1-2.82-2.82V16.94a2.82,2.82,0,0,1,2.82-2.82h0a2.82,2.82,0,0,1,2.82,2.82V129.85A2.82,2.82,0,0,1,14.11,132.67Z" style="fill:#8f96ab"/><rect x="5.65" y="138.31" width="84.68" height="22.58" style="fill:#9fa7bf"/><path d="M16.94,158.07V146.78a2.82,2.82,0,0,0-5.65,0v11.29Z" style="fill:#717588"/><path d="M25.4,132.67h0a2.82,2.82,0,0,1-2.82-2.82V16.94a2.82,2.82,0,0,1,2.82-2.82h0a2.82,2.82,0,0,1,2.82,2.82V129.85A2.82,2.82,0,0,1,25.4,132.67Z" style="fill:#8f96ab"/><path d="M28.23,158.07V146.78a2.82,2.82,0,0,0-5.65,0v11.29Z" style="fill:#717588"/><path d="M36.7,132.67h0a2.82,2.82,0,0,1-2.82-2.82V16.94a2.82,2.82,0,0,1,2.82-2.82h0a2.82,2.82,0,0,1,2.82,2.82V129.85A2.82,2.82,0,0,1,36.7,132.67Z" style="fill:#8f96ab"/><path d="M39.52,158.07V146.78a2.82,2.82,0,0,0-5.65,0v11.29Z" style="fill:#717588"/><path d="M48,132.67h0a2.82,2.82,0,0,1-2.82-2.82V16.94A2.82,2.82,0,0,1,48,14.11h0a2.82,2.82,0,0,1,2.82,2.82V129.85A2.82,2.82,0,0,1,48,132.67Z" style="fill:#8f96ab"/><path d="M50.81,158.07V146.78a2.82,2.82,0,0,0-5.65,0v11.29Z" style="fill:#717588"/><path d="M59.28,132.67h0a2.82,2.82,0,0,1-2.82-2.82V16.94a2.82,2.82,0,0,1,2.82-2.82h0a2.82,2.82,0,0,1,2.82,2.82V129.85A2.82,2.82,0,0,1,59.28,132.67Z" style="fill:#8f96ab"/><path d="M62.1,158.07V146.78a2.82,2.82,0,0,0-5.65,0v11.29Z" style="fill:#717588"/><path d="M70.57,132.67h0a2.82,2.82,0,0,1-2.82-2.82V16.94a2.82,2.82,0,0,1,2.82-2.82h0a2.82,2.82,0,0,1,2.82,2.82V129.85A2.82,2.82,0,0,1,70.57,132.67Z" style="fill:#8f96ab"/><path d="M73.39,158.07V146.78a2.82,2.82,0,0,0-5.65,0v11.29h5.65Z" style="fill:#717588"/><path d="M81.86,132.67h0A2.82,2.82,0,0,1,79,129.85V16.94a2.82,2.82,0,0,1,2.82-2.82h0a2.82,2.82,0,0,1,2.82,2.82V129.85A2.82,2.82,0,0,1,81.86,132.67Z" style="fill:#8f96ab"/><path d="M84.68,158.07V146.78a2.82,2.82,0,0,0-5.65,0v11.29Z" style="fill:#717588"/><rect x="11.29" y="121.38" width="5.65" height="5.65" style="fill:#717588"/><rect x="22.58" y="121.38" width="5.65" height="5.65" style="fill:#717588"/><rect x="33.87" y="121.38" width="5.65" height="5.65" style="fill:#717588"/><rect x="45.16" y="121.38" width="5.65" height="5.65" style="fill:#717588"/><rect x="56.46" y="121.38" width="5.65" height="5.65" style="fill:#717588"/><rect x="67.75" y="121.38" width="5.65" height="5.65" style="fill:#717588"/><rect x="79.04" y="121.38" width="5.65" height="5.65" style="fill:#717588"/><rect x="11.29" y="104.44" width="5.65" height="5.65" style="fill:#717588"/><rect x="22.58" y="104.44" width="5.65" height="5.65" style="fill:#717588"/><rect x="33.87" y="104.44" width="5.65" height="5.65" style="fill:#717588"/><rect x="45.16" y="104.44" width="5.65" height="5.65" style="fill:#717588"/><rect x="56.46" y="104.44" width="5.65" height="5.65" style="fill:#717588"/><rect x="67.75" y="104.44" width="5.65" height="5.65" style="fill:#717588"/><rect x="79.04" y="104.44" width="5.65" height="5.65" style="fill:#717588"/><rect x="11.29" y="87.51" width="5.65" height="5.65" style="fill:#717588"/><rect x="22.58" y="87.51" width="5.65" height="5.65" style="fill:#717588"/><rect x="33.87" y="87.51" width="5.65" height="5.65" style="fill:#717588"/><rect x="45.16" y="87.51" width="5.65" height="5.65" style="fill:#717588"/><rect x="56.46" y="87.51" width="5.65" height="5.65" style="fill:#717588"/><rect x="67.75" y="87.51" width="5.65" height="5.65" style="fill:#717588"/><rect x="79.04" y="87.51" width="5.65" height="5.65" style="fill:#717588"/><rect x="11.29" y="70.57" width="5.65" height="5.65" style="fill:#717588"/><rect x="22.58" y="70.57" width="5.65" height="5.65" style="fill:#717588"/><rect x="33.87" y="70.57" width="5.65" height="5.65" style="fill:#717588"/><rect x="45.16" y="70.57" width="5.65" height="5.65" style="fill:#717588"/><rect x="56.46" y="70.57" width="5.65" height="5.65" style="fill:#717588"/><rect x="67.75" y="70.57" width="5.65" height="5.65" style="fill:#717588"/><rect x="79.04" y="70.57" width="5.65" height="5.65" style="fill:#717588"/><rect x="11.29" y="53.63" width="5.65" height="5.65" style="fill:#717588"/><rect x="22.58" y="53.63" width="5.65" height="5.65" style="fill:#717588"/><rect x="33.87" y="53.63" width="5.65" height="5.65" style="fill:#717588"/><rect x="45.16" y="53.63" width="5.65" height="5.65" style="fill:#717588"/><rect x="56.46" y="53.63" width="5.65" height="5.65" style="fill:#717588"/><rect x="67.75" y="53.63" width="5.65" height="5.65" style="fill:#717588"/><rect x="79.04" y="53.63" width="5.65" height="5.65" style="fill:#717588"/><rect x="11.29" y="36.7" width="5.65" height="5.65" style="fill:#717588"/><rect x="22.58" y="36.7" width="5.65" height="5.65" style="fill:#717588"/><rect x="33.87" y="36.7" width="5.65" height="5.65" style="fill:#717588"/><rect x="45.16" y="36.7" width="5.65" height="5.65" style="fill:#717588"/><rect x="56.46" y="36.7" width="5.65" height="5.65" style="fill:#717588"/><rect x="67.75" y="36.7" width="5.65" height="5.65" style="fill:#717588"/><rect x="79.04" y="36.7" width="5.65" height="5.65" style="fill:#717588"/><rect x="11.29" y="19.76" width="5.65" height="5.65" style="fill:#717588"/><rect x="22.58" y="19.76" width="5.65" height="5.65" style="fill:#717588"/><rect x="33.87" y="19.76" width="5.65" height="5.65" style="fill:#717588"/><rect x="45.16" y="19.76" width="5.65" height="5.65" style="fill:#717588"/><rect x="56.46" y="19.76" width="5.65" height="5.65" style="fill:#717588"/><rect x="67.75" y="19.76" width="5.65" height="5.65" style="fill:#717588"/><rect x="79.04" y="19.76" width="5.65" height="5.65" style="fill:#717588"/><path d="M90.33,8.47H5.65V2.82A2.82,2.82,0,0,1,8.47,0h79a2.82,2.82,0,0,1,2.82,2.82Z" style="fill:#8f96ab"/><path d="M132.67,163.72H2.82A2.82,2.82,0,0,1,0,160.9H0a2.82,2.82,0,0,1,2.82-2.82H132.67a2.82,2.82,0,0,1,2.82,2.82h0A2.82,2.82,0,0,1,132.67,163.72Z" style="fill:#8f96ab"/></g></g></svg>