<svg xmlns="http://www.w3.org/2000/svg" viewBox="0 0 151.7 216.83"><title>cash</title><g id="Layer_2" data-name="Layer 2"><g id="Layer_1-2" data-name="Layer 1"><line x1="75.11" y1="136.14" x2="75.11" y2="216.83" style="fill:none;stroke:#9ed29b;stroke-miterlimit:10;stroke-width:7px"/><path d="M76.15,0C34.46,0,0,33.87,0,75.56S34.46,151.7,76.15,151.7s75.56-34.46,75.56-76.15A75.61,75.61,0,0,0,76.15,0Z" style="fill:#fddb44"/><path d="M151.7,75.56c0,41.69-33.87,76.15-75.56,76.15V0A75.61,75.61,0,0,1,151.7,75.56Z" style="fill:#ffcd34"/><path d="M76.15,17.78c-31.82,0-58.37,26-58.37,57.78s26.55,58.37,58.37,58.37,57.78-26.55,57.78-58.37A57.89,57.89,0,0,0,76.15,17.78Z" style="fill:#faa734"/><path d="M133.93,75.56c0,31.82-26,58.37-57.78,58.37V17.78A57.89,57.89,0,0,1,133.93,75.56Z" style="fill:#f89929"/><path d="M85,71.11H80.59V53.33H85a4.4,4.4,0,0,1,4.44,4.44c0,5.87,8.89,5.87,8.89,0A13.31,13.31,0,0,0,85,44.44H80.59V40a4.44,4.44,0,1,0-8.89,0v4.44h-5A13.31,13.31,0,0,0,53.33,57.78v8.89A13.31,13.31,0,0,0,66.67,80h5V98.37h-5a4.4,4.4,0,0,1-4.44-4.44c0-5.87-8.89-5.87-8.89,0a13.31,13.31,0,0,0,13.33,13.33h5v4.44a4.44,4.44,0,0,0,8.89,0v-4.44H85A13.31,13.31,0,0,0,98.37,93.93V84.44A13.31,13.31,0,0,0,85,71.11Zm-13.33,0h-5a4.4,4.4,0,0,1-4.44-4.44V57.78a4.4,4.4,0,0,1,4.44-4.44h5ZM89.48,93.93A4.4,4.4,0,0,1,85,98.37H80.59V80H85a4.4,4.4,0,0,1,4.44,4.44Z" style="fill:#fddb44"/><path d="M85,71.11H80.59V53.33H85a4.4,4.4,0,0,1,4.44,4.44c0,5.87,8.89,5.87,8.89,0A13.31,13.31,0,0,0,85,44.44H80.59V40a4.29,4.29,0,0,0-4.44-4.44v80.59a4.29,4.29,0,0,0,4.44-4.44v-4.44H85A13.31,13.31,0,0,0,98.37,93.93V84.44A13.31,13.31,0,0,0,85,71.11Zm4.44,22.81A4.4,4.4,0,0,1,85,98.37H80.59V80H85a4.4,4.4,0,0,1,4.44,4.44Z" style="fill:#ffcd34"/><path d="M76.61,194.77c9-37.68,24.81-47.63,67.52-43.12C137.85,187.39,118.86,205.18,76.61,194.77Z" style="fill:none;stroke:#9ed29b;stroke-miterlimit:10;stroke-width:7px"/><path d="M74.57,194.77c-9-37.68-24.81-47.63-67.52-43.12C13.32,187.39,32.32,205.18,74.57,194.77Z" style="fill:none;stroke:#9ed29b;stroke-miterlimit:10;stroke-width:7px"/></g></g></svg>