<svg xmlns="http://www.w3.org/2000/svg" viewBox="0 0 1113.08 252.25"><title>Asset 3</title><g id="Layer_2" data-name="Layer 2"><g id="Layer_1-2" data-name="Layer 1"><polygon points="1096.27 151.56 913.08 151.56 913.08 101.56 1096.27 101.56 1113.08 126.56 1096.27 151.56" style="fill:#e64c3c"/><polygon points="913.19 151.56 730 151.56 730 101.56 913.19 101.56 930 126.56 913.19 151.56" style="fill:#ea5b51"/><polygon points="731.27 151.56 548.08 151.56 548.08 101.56 731.27 101.56 748.08 126.56 731.27 151.56" style="fill:#ea6e6c"/><polygon points="548.19 151.56 365 151.56 365 101.56 548.19 101.56 565 126.56 548.19 151.56" style="fill:#ee8686"/><polygon points="366.27 151.56 183.08 151.56 183.08 101.56 366.27 101.56 383.08 126.56 366.27 151.56" style="fill:#efa3a3"/><polygon points="183.19 151.56 0 151.56 0 101.56 183.19 101.56 200 126.56 183.19 151.56" style="fill:#f3b8b8"/><path d="M84.69,127.27a13.91,13.91,0,0,1-.38,3.31,12.7,12.7,0,0,1-1.09,2.92,11.18,11.18,0,0,1-1.73,2.44,10.73,10.73,0,0,1-5,3,11.27,11.27,0,0,1-3.07.41,8.76,8.76,0,0,1-3.6-.71,8,8,0,0,1-2.72-2,8.57,8.57,0,0,1-1.72-2.94,11.06,11.06,0,0,1-.59-3.68,14,14,0,0,1,.38-3.31,12.53,12.53,0,0,1,1.1-2.92A11.55,11.55,0,0,1,68,121.43a10.88,10.88,0,0,1,2.26-1.86A10.63,10.63,0,0,1,73,118.37a11.32,11.32,0,0,1,3.09-.41,8.73,8.73,0,0,1,3.6.71,7.89,7.89,0,0,1,2.71,2,8.62,8.62,0,0,1,1.71,3A11.13,11.13,0,0,1,84.69,127.27Zm-3.86.09a8.81,8.81,0,0,0-.35-2.58,5.78,5.78,0,0,0-1-2,4.57,4.57,0,0,0-1.65-1.28,5.15,5.15,0,0,0-2.19-.45,6.2,6.2,0,0,0-5,2.45,8.63,8.63,0,0,0-1.41,2.83,12.63,12.63,0,0,0-.5,3.67,9,9,0,0,0,.35,2.58,5.67,5.67,0,0,0,1,2,4.48,4.48,0,0,0,1.63,1.26,5.21,5.21,0,0,0,2.2.44,6.26,6.26,0,0,0,5.07-2.44A8.45,8.45,0,0,0,80.33,131,12.61,12.61,0,0,0,80.83,127.36Z" style="fill:#fff"/><path d="M95.39,136.2a7.53,7.53,0,0,0,1.54-.14,5.87,5.87,0,0,0,1.15-.36,4.89,4.89,0,0,0,.83-.46q.34-.24.6-.46c.17-.14.33-.26.46-.36a.72.72,0,0,1,.41-.14.57.57,0,0,1,.3.07,1.07,1.07,0,0,1,.19.14l1.32,1.64a9.3,9.3,0,0,1-3.2,2.4,10.18,10.18,0,0,1-4.23.83,8.23,8.23,0,0,1-3.45-.69,7.25,7.25,0,0,1-2.54-1.91,8.42,8.42,0,0,1-1.58-2.89,11.68,11.68,0,0,1-.54-3.64,14.55,14.55,0,0,1,.39-3.43,12.79,12.79,0,0,1,1.12-3,11.51,11.51,0,0,1,1.73-2.46,10.87,10.87,0,0,1,2.25-1.86,10.45,10.45,0,0,1,2.67-1.17,10.81,10.81,0,0,1,3-.41,9.64,9.64,0,0,1,2.09.21,7.5,7.5,0,0,1,1.7.59,6.63,6.63,0,0,1,1.38.91,7.61,7.61,0,0,1,1.11,1.18l-1.3,1.57a1.58,1.58,0,0,1-.34.3.86.86,0,0,1-.49.13.9.9,0,0,1-.61-.26,7.94,7.94,0,0,0-.73-.57,5.07,5.07,0,0,0-1.15-.57,5.42,5.42,0,0,0-1.85-.26,6.45,6.45,0,0,0-2.81.62,6.61,6.61,0,0,0-2.25,1.76,8.47,8.47,0,0,0-1.5,2.76,11.36,11.36,0,0,0-.54,3.63,8.62,8.62,0,0,0,.37,2.62,5.87,5.87,0,0,0,1,2,4.44,4.44,0,0,0,3.52,1.66Z" style="fill:#fff"/><path d="M120.24,121.28h-5.73l-2.2,17.88h-3.74l2.17-17.88H105l.38-3.09h15.27Z" style="fill:#fff"/><path d="M263.72,118.19l-2.58,21h-1.94a1.5,1.5,0,0,1-.72-.15,1.6,1.6,0,0,1-.53-.5l-8.12-14.33q0,.36-.06.69t-.06.62l-1.65,13.67h-3.32l2.58-21h2l.41,0a.92.92,0,0,1,.3.09.76.76,0,0,1,.23.18,2,2,0,0,1,.22.32l8.16,14.31q0-.44.06-.83t.08-.73l1.64-13.35Z" style="fill:#fff"/><path d="M285.49,127.27a13.91,13.91,0,0,1-.38,3.31,12.7,12.7,0,0,1-1.09,2.92,11.18,11.18,0,0,1-1.73,2.44,10.73,10.73,0,0,1-5,3,11.27,11.27,0,0,1-3.07.41,8.76,8.76,0,0,1-3.6-.71,8,8,0,0,1-2.72-2,8.57,8.57,0,0,1-1.72-2.94,11.06,11.06,0,0,1-.59-3.68,14,14,0,0,1,.38-3.31,12.53,12.53,0,0,1,1.1-2.92,11.55,11.55,0,0,1,1.73-2.44,10.88,10.88,0,0,1,2.26-1.86,10.63,10.63,0,0,1,2.72-1.19,11.32,11.32,0,0,1,3.09-.41,8.73,8.73,0,0,1,3.6.71,7.89,7.89,0,0,1,2.71,2,8.62,8.62,0,0,1,1.71,3A11.13,11.13,0,0,1,285.49,127.27Zm-3.86.09a8.81,8.81,0,0,0-.35-2.58,5.78,5.78,0,0,0-1-2,4.57,4.57,0,0,0-1.65-1.28,5.15,5.15,0,0,0-2.19-.45,6.2,6.2,0,0,0-5,2.45,8.63,8.63,0,0,0-1.41,2.83,12.63,12.63,0,0,0-.5,3.67,9,9,0,0,0,.35,2.58,5.67,5.67,0,0,0,1,2,4.48,4.48,0,0,0,1.63,1.26,5.21,5.21,0,0,0,2.2.44,6.26,6.26,0,0,0,5.07-2.44,8.45,8.45,0,0,0,1.41-2.81A12.61,12.61,0,0,0,281.64,127.36Z" style="fill:#fff"/><path d="M305.87,118.19l-10.37,21h-3.41l-5.22-21h3a1.17,1.17,0,0,1,.78.24,1,1,0,0,1,.36.62l2.81,13.06q.16.61.29,1.33t.23,1.5q.25-.78.54-1.5t.59-1.33l6-13.06a1.52,1.52,0,0,1,.51-.59,1.39,1.39,0,0,1,.83-.27Z" style="fill:#fff"/><path d="M449.35,127.27a13.28,13.28,0,0,1-.84,4.8,11.2,11.2,0,0,1-2.34,3.76,10.61,10.61,0,0,1-3.56,2.45,11.35,11.35,0,0,1-4.5.88h-7.38l2.58-21h7.4a9.13,9.13,0,0,1,3.6.68,7.84,7.84,0,0,1,2.72,1.89,8.31,8.31,0,0,1,1.72,2.87A10.65,10.65,0,0,1,449.35,127.27Zm-3.86.09a8.74,8.74,0,0,0-.35-2.55,5.61,5.61,0,0,0-1-2,4.43,4.43,0,0,0-1.62-1.24,5.22,5.22,0,0,0-2.19-.44h-3.6l-1.86,15h3.61a6.64,6.64,0,0,0,2.87-.61,6.24,6.24,0,0,0,2.21-1.75A8.15,8.15,0,0,0,445,131,12.52,12.52,0,0,0,445.5,127.36Z" style="fill:#fff"/><path d="M457.27,121.19l-.74,6h6.63l-.36,2.88h-6.63l-.75,6.12h8.47l-.38,3H451.27l2.58-21h12.22l-.38,3Z" style="fill:#fff"/><path d="M475.21,136.2a7.53,7.53,0,0,0,1.54-.14,5.87,5.87,0,0,0,1.15-.36,4.89,4.89,0,0,0,.83-.46q.34-.24.6-.46c.17-.14.33-.26.46-.36a.72.72,0,0,1,.41-.14.57.57,0,0,1,.3.07,1.07,1.07,0,0,1,.19.14l1.32,1.64a9.3,9.3,0,0,1-3.2,2.4,10.18,10.18,0,0,1-4.23.83,8.23,8.23,0,0,1-3.45-.69,7.25,7.25,0,0,1-2.54-1.91,8.42,8.42,0,0,1-1.58-2.89,11.68,11.68,0,0,1-.54-3.64,14.55,14.55,0,0,1,.39-3.43,12.79,12.79,0,0,1,1.12-3,11.51,11.51,0,0,1,1.73-2.46,10.87,10.87,0,0,1,2.25-1.86,10.45,10.45,0,0,1,2.67-1.17,10.81,10.81,0,0,1,3-.41,9.64,9.64,0,0,1,2.09.21,7.5,7.5,0,0,1,1.7.59,6.63,6.63,0,0,1,1.38.91,7.61,7.61,0,0,1,1.11,1.18l-1.3,1.57a1.58,1.58,0,0,1-.34.3.86.86,0,0,1-.49.13.9.9,0,0,1-.61-.26,7.94,7.94,0,0,0-.73-.57,5.07,5.07,0,0,0-1.15-.57,5.42,5.42,0,0,0-1.85-.26,6.45,6.45,0,0,0-2.81.62,6.61,6.61,0,0,0-2.25,1.76,8.47,8.47,0,0,0-1.5,2.76,11.36,11.36,0,0,0-.54,3.63,8.62,8.62,0,0,0,.37,2.62,5.87,5.87,0,0,0,1,2,4.44,4.44,0,0,0,3.52,1.66Z" style="fill:#fff"/><path d="M625.26,131.9a12.37,12.37,0,0,1-.78,3.13,7.53,7.53,0,0,1-1.47,2.36,6.18,6.18,0,0,1-2.15,1.49,7.25,7.25,0,0,1-2.83.52,11.08,11.08,0,0,1-1.49-.09,10.83,10.83,0,0,1-1.44-.3l.28-2.2a1,1,0,0,1,.22-.51.68.68,0,0,1,.55-.2,3.49,3.49,0,0,1,.78.1,5.09,5.09,0,0,0,1.11.1,3.29,3.29,0,0,0,1.24-.23,2.7,2.7,0,0,0,1-.75A4.4,4.4,0,0,0,621,134a8.2,8.2,0,0,0,.44-2l1.68-13.79h3.76Z" style="fill:#fff"/><path d="M645.11,139.16H642.2a1.1,1.1,0,0,1-.76-.24,1.33,1.33,0,0,1-.38-.62l-.87-4.38h-7.82l-1.94,4.38a1.59,1.59,0,0,1-.51.59,1.35,1.35,0,0,1-.82.26h-3l10.14-21h3.84Zm-5.47-7.89-1.42-7.18-.2-1.14q-.12-.65-.23-1.42-.29.77-.57,1.42l-.49,1.16-3.17,7.16Z" style="fill:#fff"/><path d="M666.24,118.19l-2.58,21h-1.94A1.5,1.5,0,0,1,661,139a1.6,1.6,0,0,1-.53-.5l-8.12-14.33c0,.24,0,.47-.06.69s0,.42-.06.62l-1.65,13.67h-3.32l2.58-21h2l.41,0a.92.92,0,0,1,.3.09.77.77,0,0,1,.23.18,2.09,2.09,0,0,1,.22.32l8.16,14.31q0-.44.07-.83c0-.27.05-.51.08-.73l1.64-13.35Z" style="fill:#fff"/><path d="M802.74,121.19l-.8,6.38h7.13l-.41,3h-7.09l-1.06,8.58h-3.78l2.58-21h12.22l-.38,3Z" style="fill:#fff"/><path d="M818.14,121.19l-.74,6H824l-.36,2.88H817l-.75,6.12h8.47l-.38,3H812.13l2.58-21h12.22l-.38,3Z" style="fill:#fff"/><path d="M837,118.19a11.38,11.38,0,0,1,3,.34,5.67,5.67,0,0,1,2,1,3.8,3.8,0,0,1,1.17,1.51,5,5,0,0,1,.38,2,6.06,6.06,0,0,1-.24,1.72,4.87,4.87,0,0,1-.75,1.52,5.46,5.46,0,0,1-1.29,1.25,7.1,7.1,0,0,1-1.87.91,5,5,0,0,1,2.65,1.46,3.78,3.78,0,0,1,.87,2.56,6.68,6.68,0,0,1-.54,2.69,6.1,6.1,0,0,1-1.55,2.15,7.33,7.33,0,0,1-2.47,1.42,9.85,9.85,0,0,1-3.3.52h-7.38l2.58-21Zm-1.62,18a4.92,4.92,0,0,0,1.73-.28,3.08,3.08,0,0,0,1.2-.78A3.16,3.16,0,0,0,839,134a5.07,5.07,0,0,0,.22-1.54,2.39,2.39,0,0,0-.73-1.83,3.41,3.41,0,0,0-2.38-.68h-3.54l-.77,6.31Zm-1.71-15.14-.77,6.24h2.78a4.43,4.43,0,0,0,3-.91,3.51,3.51,0,0,0,1.05-2.8,2.33,2.33,0,0,0-.75-1.92,3.69,3.69,0,0,0-2.33-.6Z" style="fill:#fff"/><path d="M1005.4,118.19l-2.58,21h-3.31l1.68-13.66c0-.25.08-.52.14-.81s.11-.59.18-.9l-7.21,11.95a1.67,1.67,0,0,1-.62.61,1.64,1.64,0,0,1-.8.2h-.52a1.4,1.4,0,0,1-.76-.2,1.14,1.14,0,0,1-.47-.61l-4.32-11.95c0,.3,0,.59,0,.87s0,.54-.07.78l-1.65,13.72h-3.32l2.58-21h2.83l.41,0a.84.84,0,0,1,.54.28,2.67,2.67,0,0,1,.25.31l4.34,12a14.43,14.43,0,0,1,.43,1.57l.38-.8q.19-.39.43-.77l7.28-12c.12-.13.22-.23.31-.31a1.13,1.13,0,0,1,.28-.19,1.1,1.1,0,0,1,.32-.09l.42,0Z" style="fill:#fff"/><path d="M1023.93,139.16H1021a1.1,1.1,0,0,1-.76-.24,1.33,1.33,0,0,1-.38-.62l-.87-4.38h-7.82l-1.94,4.38a1.6,1.6,0,0,1-.51.59,1.35,1.35,0,0,1-.82.26h-3l10.14-21h3.84Zm-5.47-7.89-1.42-7.18-.2-1.14q-.12-.65-.23-1.42-.29.77-.57,1.42l-.49,1.16-3.18,7.16Z" style="fill:#fff"/><path d="M1034.59,118.19a11,11,0,0,1,3.11.38,5.88,5.88,0,0,1,2.12,1.07,4.18,4.18,0,0,1,1.22,1.65,5.51,5.51,0,0,1,.39,2.1,7.5,7.5,0,0,1-.34,2.28,6.6,6.6,0,0,1-2.54,3.47,7.44,7.44,0,0,1-2.1,1,2.82,2.82,0,0,1,.6.49,3,3,0,0,1,.47.7l3.74,7.82h-3.38a1.26,1.26,0,0,1-1.29-.75l-3.07-6.8a1.26,1.26,0,0,0-.43-.54,1.47,1.47,0,0,0-.79-.17h-1.46l-1,8.27h-3.74l2.55-21Zm-1.26,10a5.26,5.26,0,0,0,2-.33,3.59,3.59,0,0,0,2.15-2.24,5.11,5.11,0,0,0,.26-1.65,2.73,2.73,0,0,0-.85-2.13,3.78,3.78,0,0,0-2.6-.77H1032l-.87,7.12Z" style="fill:#fff"/><rect x="217.32" y="128.16" width="2.89" height="122.86" style="fill:#333"/><ellipse cx="218.77" cy="128.35" rx="4.3" ry="3.46" style="fill:#333"/><path d="M235.93,210.29a9.51,9.51,0,0,1-.31,2.57,5.71,5.71,0,0,1-.83,1.82,3.47,3.47,0,0,1-1.23,1.08,3.24,3.24,0,0,1-1.49.36,2.49,2.49,0,0,1-1.08-.23,2.25,2.25,0,0,1-.84-.71,3.51,3.51,0,0,1-.55-1.18,6.25,6.25,0,0,1-.2-1.65,9.63,9.63,0,0,1,.31-2.57,5.75,5.75,0,0,1,.83-1.82,3.43,3.43,0,0,1,1.22-1.08,3.23,3.23,0,0,1,1.49-.36,2.48,2.48,0,0,1,1.08.23,2.3,2.3,0,0,1,.85.71,3.5,3.5,0,0,1,.56,1.18A6.17,6.17,0,0,1,235.93,210.29Zm-1.59-.08a5.41,5.41,0,0,0-.1-1.13,2.45,2.45,0,0,0-.27-.74,1.1,1.1,0,0,0-.4-.41,1,1,0,0,0-.48-.12,1.42,1.42,0,0,0-.52.1,1.53,1.53,0,0,0-.49.32,2.42,2.42,0,0,0-.44.58,4,4,0,0,0-.35.87,7.85,7.85,0,0,0-.23,1.2,13.31,13.31,0,0,0-.08,1.56,5.34,5.34,0,0,0,.1,1.13,2.44,2.44,0,0,0,.27.74,1.08,1.08,0,0,0,.39.4,1,1,0,0,0,.47.12,1.46,1.46,0,0,0,.77-.23,2,2,0,0,0,.68-.77,5.15,5.15,0,0,0,.48-1.42A11,11,0,0,0,234.33,210.21Z" style="fill:#231f20"/><path d="M243.83,206.62l-.08.67a1.56,1.56,0,0,1-.13.48l-.16.32-4.13,7.4a1.31,1.31,0,0,1-.34.37.88.88,0,0,1-.54.15h-1.12l4.19-7.25q.14-.22.28-.4a3.17,3.17,0,0,1,.3-.33H238a.29.29,0,0,1-.23-.11.32.32,0,0,1-.08-.25l.13-1Z" style="fill:#231f20"/><path d="M255.75,206.61l-1.16,9.4h-.87a.68.68,0,0,1-.32-.07.72.72,0,0,1-.24-.22l-3.64-6.42,0,.31,0,.28-.74,6.13h-1.49l1.16-9.4h1.07l.13,0a.34.34,0,0,1,.1.08l.1.14,3.66,6.42c0-.13,0-.25,0-.37s0-.23,0-.33l.73-6Z" style="fill:#231f20"/><path d="M258.73,216.11a2.76,2.76,0,0,1-1-.19,2.29,2.29,0,0,1-.81-.54,2.51,2.51,0,0,1-.54-.88,3.38,3.38,0,0,1-.19-1.19,4.56,4.56,0,0,1,.28-1.61,4.16,4.16,0,0,1,.76-1.29,3.54,3.54,0,0,1,1.11-.86,3,3,0,0,1,1.36-.31,2.77,2.77,0,0,1,1,.19,2.24,2.24,0,0,1,.81.54,2.54,2.54,0,0,1,.54.88,3.38,3.38,0,0,1,.19,1.19,4.52,4.52,0,0,1-.28,1.6,4.21,4.21,0,0,1-.76,1.29,3.55,3.55,0,0,1-1.11.86A3,3,0,0,1,258.73,216.11Zm.15-1.24a1.23,1.23,0,0,0,.73-.23,2,2,0,0,0,.55-.62,3.27,3.27,0,0,0,.35-.9,4.58,4.58,0,0,0,.12-1.08,2.07,2.07,0,0,0-.27-1.19,1,1,0,0,0-.83-.38,1.26,1.26,0,0,0-.73.23,1.91,1.91,0,0,0-.56.61,3.26,3.26,0,0,0-.35.9,4.61,4.61,0,0,0-.12,1.08,2.07,2.07,0,0,0,.27,1.19A1,1,0,0,0,258.88,214.87Z" style="fill:#231f20"/><path d="M269.15,209.34,265.86,216h-1.35l-1.67-6.67h1.32a.41.41,0,0,1,.27.08.37.37,0,0,1,.13.21l.7,3.56q.05.33.08.64t.05.62q.2-.62.46-1.26l1.59-3.56a.52.52,0,0,1,.18-.21.46.46,0,0,1,.27-.08Z" style="fill:#231f20"/><path d="M234,228.2l-.58,4.62h5.17l-.29,2.17h-5.13l-.77,6.22h-2.74L231.49,226h8.85l-.27,2.17Z" style="fill:#231f20"/><path d="M243.62,241.37a4.45,4.45,0,0,1-1.65-.3,3.68,3.68,0,0,1-1.31-.88,4.07,4.07,0,0,1-.87-1.42,5.45,5.45,0,0,1-.31-1.92,7.37,7.37,0,0,1,.45-2.6,6.69,6.69,0,0,1,1.22-2.09,5.71,5.71,0,0,1,1.8-1.39,4.92,4.92,0,0,1,2.19-.5,4.49,4.49,0,0,1,1.65.3,3.62,3.62,0,0,1,1.31.88,4.11,4.11,0,0,1,.87,1.42,5.46,5.46,0,0,1,.31,1.92,7.3,7.3,0,0,1-.45,2.59,6.8,6.8,0,0,1-1.22,2.09,5.75,5.75,0,0,1-1.8,1.4A4.88,4.88,0,0,1,243.62,241.37Zm.24-2A2,2,0,0,0,245,239a3.17,3.17,0,0,0,.89-1,5.29,5.29,0,0,0,.57-1.46,7.41,7.41,0,0,0,.2-1.74,3.34,3.34,0,0,0-.44-1.93,1.54,1.54,0,0,0-1.34-.61,2,2,0,0,0-1.18.37,3.09,3.09,0,0,0-.9,1,5.28,5.28,0,0,0-.57,1.45,7.49,7.49,0,0,0-.2,1.75,3.34,3.34,0,0,0,.44,1.93A1.56,1.56,0,0,0,243.86,239.37Z" style="fill:#231f20"/><path d="M253.83,233a7.71,7.71,0,0,1,.88-1.37,4.12,4.12,0,0,1,1-.89,2.39,2.39,0,0,1,1-.38,2.09,2.09,0,0,1,1.07.17l-.47,2.48a2,2,0,0,0-2.24.26,5.93,5.93,0,0,0-1.54,3.14l-.58,4.78h-2.54l1.3-10.78H253a.93.93,0,0,1,.64.2.81.81,0,0,1,.23.64Z" style="fill:#231f20"/><path d="M268.1,230.44l-1.3,10.77h-1.31q-.92,0-.92-.89l.06-1.24a5.86,5.86,0,0,1-1.79,1.72,3.93,3.93,0,0,1-2,.57,2.63,2.63,0,0,1-1.21-.27,2.3,2.3,0,0,1-.88-.79,3.42,3.42,0,0,1-.49-1.29,5.66,5.66,0,0,1,0-1.74l.81-6.83h2.59l-.81,6.83a2.72,2.72,0,0,0,.1,1.52.91.91,0,0,0,.88.46,1.82,1.82,0,0,0,.86-.23,3.34,3.34,0,0,0,.85-.66,5.38,5.38,0,0,0,.76-1,6.65,6.65,0,0,0,.58-1.35l.66-5.53Z" style="fill:#231f20"/><path d="M269.2,241.21l1.3-10.78h1.32a.93.93,0,0,1,.64.2.81.81,0,0,1,.23.64l-.05,1.19a5.44,5.44,0,0,1,1.58-1.64,3.26,3.26,0,0,1,1.77-.54,2,2,0,0,1,1.56.66,3.21,3.21,0,0,1,.67,1.91,5.74,5.74,0,0,1,1.67-1.95,3.49,3.49,0,0,1,2-.62,2.52,2.52,0,0,1,1.2.27,2.2,2.2,0,0,1,.84.79,3.33,3.33,0,0,1,.44,1.28,6.28,6.28,0,0,1,0,1.74l-.81,6.86H281l.81-6.86a3.15,3.15,0,0,0-.06-1.51.76.76,0,0,0-.78-.46,1.58,1.58,0,0,0-.78.21,2.66,2.66,0,0,0-.72.61,4.81,4.81,0,0,0-.63,1,8.37,8.37,0,0,0-.51,1.3l-.67,5.72h-2.56l.82-6.86a3.42,3.42,0,0,0-.05-1.51.74.74,0,0,0-.78-.46,1.59,1.59,0,0,0-.8.22,2.69,2.69,0,0,0-.72.64,5.07,5.07,0,0,0-.63,1,8.88,8.88,0,0,0-.51,1.33l-.67,5.63Z" style="fill:#231f20"/><rect x="405.45" width="2.89" height="130.2" transform="translate(813.79 130.2) rotate(180)" style="fill:#333"/><ellipse cx="406.9" cy="129.99" rx="4.3" ry="3.67" style="fill:#333"/><path d="M423.14,14.91,423,16.07h-4.82l.14-1.16H420l.69-5.6,0-.31c0-.11,0-.21.06-.32L419.5,9.82a.55.55,0,0,1-.23.11.52.52,0,0,1-.21,0,.44.44,0,0,1-.16-.07.34.34,0,0,1-.1-.11l-.4-.67,2.94-2.43h1.27l-1,8.25Z" style="fill:#231f20"/><path d="M431.37,12.55l-.11.89a.35.35,0,0,1-.11.22.34.34,0,0,1-.24.09h-.74l-.29,2.31h-1.35l.29-2.31H425.2a.37.37,0,0,1-.26-.09.35.35,0,0,1-.12-.24l-.06-.79,4.82-6H431l-.72,5.88Zm-2.41,0,.39-3.18c0-.12,0-.24.06-.38s.05-.27.09-.42l-3.13,4Z" style="fill:#231f20"/><path d="M443.71,10.74a6,6,0,0,1-.38,2.15,5,5,0,0,1-1,1.69,4.77,4.77,0,0,1-1.6,1.1,5.1,5.1,0,0,1-2,.39h-3.31l1.16-9.4h3.31a4.08,4.08,0,0,1,1.62.31,3.52,3.52,0,0,1,1.22.84,3.72,3.72,0,0,1,.77,1.29A4.77,4.77,0,0,1,443.71,10.74Zm-1.73,0a3.92,3.92,0,0,0-.16-1.14,2.5,2.5,0,0,0-.45-.87,2,2,0,0,0-.72-.56,2.35,2.35,0,0,0-1-.19h-1.61l-.83,6.71h1.62a3,3,0,0,0,1.29-.27,2.8,2.8,0,0,0,1-.78,3.65,3.65,0,0,0,.64-1.24A5.61,5.61,0,0,0,442,10.78Z" style="fill:#231f20"/><path d="M445.89,13.35q0,1.57,1.33,1.57a2.08,2.08,0,0,0,.89-.19,1.77,1.77,0,0,0,.3-.18l.25-.18.22-.13a.53.53,0,0,1,.24-.06.34.34,0,0,1,.15,0,.47.47,0,0,1,.13.1l.41.49a6.86,6.86,0,0,1-.68.6,3.77,3.77,0,0,1-.68.42,3.17,3.17,0,0,1-.73.24,4.19,4.19,0,0,1-.83.08,2.73,2.73,0,0,1-1.06-.2,2.33,2.33,0,0,1-.81-.56,2.52,2.52,0,0,1-.52-.87,3.33,3.33,0,0,1-.19-1.14,4.72,4.72,0,0,1,.11-1,4.65,4.65,0,0,1,.33-1,4.05,4.05,0,0,1,.53-.84A3.58,3.58,0,0,1,446,9.9a3.22,3.22,0,0,1,.86-.44,3.18,3.18,0,0,1,1-.16,2.56,2.56,0,0,1,.91.15,2.07,2.07,0,0,1,.66.39,1.58,1.58,0,0,1,.39.53,1.4,1.4,0,0,1,.13.57,1.86,1.86,0,0,1-.18.82,1.68,1.68,0,0,1-.64.66,4.5,4.5,0,0,1-1.25.5,13.29,13.29,0,0,1-2,.33Zm1.9-2.92a1.39,1.39,0,0,0-.6.13,1.67,1.67,0,0,0-.5.37,2.4,2.4,0,0,0-.39.58,3.57,3.57,0,0,0-.26.73,10.79,10.79,0,0,0,1.3-.24,3.29,3.29,0,0,0,.76-.29.75.75,0,0,0,.44-.71.53.53,0,0,0,0-.2.52.52,0,0,0-.13-.19.74.74,0,0,0-.23-.14A.93.93,0,0,0,447.79,10.43Z" style="fill:#231f20"/><path d="M455.14,15.5a3.09,3.09,0,0,1-.61.4,2.56,2.56,0,0,1-.65.21,4.25,4.25,0,0,1-.75.06,2.59,2.59,0,0,1-1-.2,2.14,2.14,0,0,1-.78-.56,2.49,2.49,0,0,1-.49-.88,3.64,3.64,0,0,1-.17-1.14,4.72,4.72,0,0,1,.12-1.05,4.51,4.51,0,0,1,.34-1,4.17,4.17,0,0,1,.53-.83,3.55,3.55,0,0,1,.7-.65,3.24,3.24,0,0,1,.85-.43,3.06,3.06,0,0,1,1-.15,2.48,2.48,0,0,1,1.13.23,2.39,2.39,0,0,1,.82.7l-.51.61a.59.59,0,0,1-.13.11.31.31,0,0,1-.17,0,.31.31,0,0,1-.2-.07l-.21-.15a1.52,1.52,0,0,0-.3-.15,1.31,1.31,0,0,0-.46-.07,1.37,1.37,0,0,0-.71.2,2,2,0,0,0-.6.57,3,3,0,0,0-.41.89,4.08,4.08,0,0,0-.15,1.15,1.75,1.75,0,0,0,.33,1.13,1.08,1.08,0,0,0,.88.4,1.66,1.66,0,0,0,.44-.05,1.8,1.8,0,0,0,.33-.13,1.53,1.53,0,0,0,.26-.16l.21-.16.19-.13a.37.37,0,0,1,.19-.05.32.32,0,0,1,.16,0,.54.54,0,0,1,.13.11l.4.49A6.1,6.1,0,0,1,455.14,15.5Z" style="fill:#231f20"/><path d="M429.85,41.27h-2.11a.8.8,0,0,1-.55-.17,1,1,0,0,1-.28-.45l-.63-3.17h-5.66l-1.41,3.17a1.15,1.15,0,0,1-.37.43,1,1,0,0,1-.59.19H416.1l7.34-15.18h2.78Zm-4-5.71-1-5.2-.15-.83q-.08-.47-.17-1-.21.56-.41,1l-.36.84-2.3,5.19Z" style="fill:#231f20"/><path d="M434.42,32.87A6.9,6.9,0,0,1,436.18,31a3.57,3.57,0,0,1,2.08-.69,2.93,2.93,0,0,1,1.22.25,2.48,2.48,0,0,1,.93.74,3.52,3.52,0,0,1,.6,1.25,6.66,6.66,0,0,1,.21,1.77,8.52,8.52,0,0,1-.19,1.8,8.63,8.63,0,0,1-.54,1.67,7.9,7.9,0,0,1-.82,1.45,6,6,0,0,1-1.07,1.14,4.87,4.87,0,0,1-1.25.76,3.62,3.62,0,0,1-1.38.27,3.16,3.16,0,0,1-1.32-.26,3.31,3.31,0,0,1-1-.71l-.54,4.34h-2.52l1.74-14.3h1.31a.93.93,0,0,1,.64.2.81.81,0,0,1,.23.64Zm-.58,5.88a2,2,0,0,0,.82.55,2.78,2.78,0,0,0,.9.16,2,2,0,0,0,1.26-.43,3.84,3.84,0,0,0,1-1.12,5.91,5.91,0,0,0,.63-1.56,7,7,0,0,0,.22-1.74,3,3,0,0,0-.37-1.68,1.18,1.18,0,0,0-1-.55,1.57,1.57,0,0,0-.87.29,3.86,3.86,0,0,0-.85.8,6.86,6.86,0,0,0-.76,1.2,9.77,9.77,0,0,0-.6,1.49Z" style="fill:#231f20"/><path d="M445.74,32.87A6.9,6.9,0,0,1,447.5,31a3.57,3.57,0,0,1,2.08-.69,2.93,2.93,0,0,1,1.22.25,2.48,2.48,0,0,1,.93.74,3.52,3.52,0,0,1,.6,1.25,6.66,6.66,0,0,1,.21,1.77,8.52,8.52,0,0,1-.19,1.8,8.63,8.63,0,0,1-.54,1.67,7.9,7.9,0,0,1-.82,1.45,6,6,0,0,1-1.07,1.14,4.87,4.87,0,0,1-1.25.76,3.62,3.62,0,0,1-1.38.27,3.16,3.16,0,0,1-1.32-.26,3.31,3.31,0,0,1-1-.71l-.54,4.34H441.9l1.74-14.3H445a.93.93,0,0,1,.64.2.81.81,0,0,1,.23.64Zm-.58,5.88a2,2,0,0,0,.82.55,2.78,2.78,0,0,0,.9.16,2,2,0,0,0,1.26-.43,3.84,3.84,0,0,0,1-1.12,5.91,5.91,0,0,0,.63-1.56A7,7,0,0,0,450,34.6a3,3,0,0,0-.37-1.68,1.18,1.18,0,0,0-1-.55,1.57,1.57,0,0,0-.87.29,3.86,3.86,0,0,0-.85.8,6.86,6.86,0,0,0-.76,1.2,9.77,9.77,0,0,0-.6,1.49Z" style="fill:#231f20"/><path d="M453.68,41.27l1.89-15.6h2.56l-1.9,15.6Z" style="fill:#231f20"/><path d="M462.61,30.49l-1.29,10.77h-2.55l1.29-10.77Zm.66-3.14a1.42,1.42,0,0,1-.14.63,1.75,1.75,0,0,1-.37.51,1.85,1.85,0,0,1-.52.35,1.49,1.49,0,0,1-.61.13,1.39,1.39,0,0,1-.59-.13,1.74,1.74,0,0,1-.5-.35,1.7,1.7,0,0,1-.35-.51,1.52,1.52,0,0,1-.13-.63,1.55,1.55,0,0,1,.14-.64,1.81,1.81,0,0,1,.36-.53,1.67,1.67,0,0,1,.51-.36,1.41,1.41,0,0,1,.59-.13,1.47,1.47,0,0,1,.61.13,1.79,1.79,0,0,1,.52.35,1.71,1.71,0,0,1,.36.53A1.58,1.58,0,0,1,463.27,27.36Z" style="fill:#231f20"/><path d="M471.08,40.34a5,5,0,0,1-1,.64,4.16,4.16,0,0,1-1.06.34,6.84,6.84,0,0,1-1.21.1,4.19,4.19,0,0,1-1.67-.32,3.48,3.48,0,0,1-1.25-.91,4,4,0,0,1-.79-1.42,5.89,5.89,0,0,1-.27-1.85,7.64,7.64,0,0,1,.19-1.7,7.25,7.25,0,0,1,.55-1.56,6.69,6.69,0,0,1,.86-1.34,5.73,5.73,0,0,1,1.13-1,5.28,5.28,0,0,1,1.37-.69,4.92,4.92,0,0,1,1.57-.25,4,4,0,0,1,1.82.38,3.86,3.86,0,0,1,1.33,1.13l-.83,1a1,1,0,0,1-.21.17.5.5,0,0,1-.27.08A.51.51,0,0,1,471,33l-.34-.24a2.57,2.57,0,0,0-.48-.24,2.15,2.15,0,0,0-.75-.11,2.21,2.21,0,0,0-1.14.33,3.16,3.16,0,0,0-1,.92,4.85,4.85,0,0,0-.67,1.44,6.56,6.56,0,0,0-.25,1.86,2.83,2.83,0,0,0,.52,1.83,1.74,1.74,0,0,0,1.43.65,2.63,2.63,0,0,0,.7-.08,2.86,2.86,0,0,0,.54-.2,2.5,2.5,0,0,0,.42-.26l.34-.26.3-.21a.6.6,0,0,1,.31-.08.52.52,0,0,1,.26.07.86.86,0,0,1,.22.17l.65.8A9.86,9.86,0,0,1,471.08,40.34Z" style="fill:#231f20"/><path d="M479.58,39A6.48,6.48,0,0,1,478,40.77a3.26,3.26,0,0,1-2,.65,2.71,2.71,0,0,1-1.14-.24,2.56,2.56,0,0,1-.92-.72,3.5,3.5,0,0,1-.62-1.2,5.64,5.64,0,0,1-.23-1.68,7.32,7.32,0,0,1,.24-1.88,7.39,7.39,0,0,1,1.76-3.19,6.88,6.88,0,0,1,3.1-1.91,6.74,6.74,0,0,1,1.92-.27,10.29,10.29,0,0,1,1.45.1,6.32,6.32,0,0,1,1.42.38l-1.29,10.45h-1.38a.77.77,0,0,1-.67-.25,1,1,0,0,1-.17-.62Zm.71-6.83-.28,0h-.26a3.37,3.37,0,0,0-1.62.4,4.13,4.13,0,0,0-1.29,1.08,5.25,5.25,0,0,0-.85,1.58,5.77,5.77,0,0,0-.31,1.9,3,3,0,0,0,.36,1.66,1.12,1.12,0,0,0,1,.52,1.43,1.43,0,0,0,.85-.3,3.55,3.55,0,0,0,.79-.82,6.78,6.78,0,0,0,.68-1.22,11.8,11.8,0,0,0,.54-1.51Z" style="fill:#231f20"/><path d="M494.21,41.27h-2.5l1.09-8.87h-4.48l-.59,4.74-.08.68,0,.39,0,.2s0,.06,0,.08a1,1,0,0,0,.19.63.68.68,0,0,0,.55.23,1.11,1.11,0,0,0,.38-.06l.27-.12.21-.12a.34.34,0,0,1,.18-.06.25.25,0,0,1,.18.06.53.53,0,0,1,.12.17l.57,1.26a4.33,4.33,0,0,1-2.7,1,2.56,2.56,0,0,1-1.81-.62,2.39,2.39,0,0,1-.71-1.74V38.9c0-.07,0-.16,0-.29s0-.3.05-.51.06-.49.1-.82l.6-4.87h-1a.42.42,0,0,1-.33-.13.48.48,0,0,1-.09-.39l.13-1,1.6-.27.88-3a.63.63,0,0,1,.21-.33.58.58,0,0,1,.37-.12H489l-.42,3.42h7Zm2.2-13.91a1.42,1.42,0,0,1-.14.63,1.79,1.79,0,0,1-.37.51,1.77,1.77,0,0,1-.52.35,1.49,1.49,0,0,1-.61.13,1.43,1.43,0,0,1-.59-.13,1.71,1.71,0,0,1-.86-.87,1.52,1.52,0,0,1-.13-.63,1.55,1.55,0,0,1,.14-.64,1.81,1.81,0,0,1,.36-.53,1.67,1.67,0,0,1,.51-.36,1.41,1.41,0,0,1,.59-.13,1.47,1.47,0,0,1,.61.13,1.79,1.79,0,0,1,.52.35,1.71,1.71,0,0,1,.36.53A1.58,1.58,0,0,1,496.41,27.36Z" style="fill:#231f20"/><path d="M500.91,41.43a4.45,4.45,0,0,1-1.65-.3,3.7,3.7,0,0,1-1.31-.88,4.07,4.07,0,0,1-.87-1.42,5.45,5.45,0,0,1-.31-1.92,7.37,7.37,0,0,1,.45-2.6,6.69,6.69,0,0,1,1.22-2.09,5.7,5.7,0,0,1,1.8-1.39,4.92,4.92,0,0,1,2.19-.5,4.47,4.47,0,0,1,1.65.3,3.62,3.62,0,0,1,1.31.88,4.13,4.13,0,0,1,.87,1.42,5.45,5.45,0,0,1,.31,1.92,7.31,7.31,0,0,1-.45,2.59,6.8,6.8,0,0,1-1.22,2.09,5.77,5.77,0,0,1-1.8,1.4A4.88,4.88,0,0,1,500.91,41.43Zm.24-2a2,2,0,0,0,1.18-.37,3.16,3.16,0,0,0,.89-1,5.28,5.28,0,0,0,.57-1.45,7.41,7.41,0,0,0,.2-1.74,3.34,3.34,0,0,0-.44-1.93,1.55,1.55,0,0,0-1.34-.61,2,2,0,0,0-1.18.37,3.09,3.09,0,0,0-.9,1,5.29,5.29,0,0,0-.57,1.46,7.48,7.48,0,0,0-.2,1.75,3.34,3.34,0,0,0,.44,1.93A1.56,1.56,0,0,0,501.15,39.43Z" style="fill:#231f20"/><path d="M511.13,32.72a5.86,5.86,0,0,1,1.82-1.8,4,4,0,0,1,2.06-.59,2.61,2.61,0,0,1,1.21.27,2.31,2.31,0,0,1,.88.79,3.42,3.42,0,0,1,.49,1.28,5.61,5.61,0,0,1,0,1.74l-.81,6.86h-2.59l.81-6.86a2.69,2.69,0,0,0-.1-1.51.91.91,0,0,0-.88-.46,1.83,1.83,0,0,0-.88.25,3.43,3.43,0,0,0-.87.7,5.67,5.67,0,0,0-.77,1.09,6.6,6.6,0,0,0-.57,1.42l-.6,5.36h-2.59L509,30.48h1.31a.93.93,0,0,1,.64.2.81.81,0,0,1,.23.64Z" style="fill:#231f20"/><path d="M526.25,32.52a.85.85,0,0,1-.22.24.49.49,0,0,1-.27.07.78.78,0,0,1-.38-.1l-.44-.24a3.58,3.58,0,0,0-.57-.24,2.44,2.44,0,0,0-.76-.11,1.92,1.92,0,0,0-1.27.37,1.17,1.17,0,0,0-.44.93.86.86,0,0,0,.31.69,3,3,0,0,0,.78.46l1,.4a5.24,5.24,0,0,1,1,.51,2.63,2.63,0,0,1,.78.8,2.31,2.31,0,0,1,.31,1.25,3.66,3.66,0,0,1-1.2,2.71,4.28,4.28,0,0,1-1.39.84,5.13,5.13,0,0,1-1.83.31,4.87,4.87,0,0,1-1-.1,4.62,4.62,0,0,1-.9-.28,4.3,4.3,0,0,1-.76-.42,3.07,3.07,0,0,1-.59-.53l.64-1a.84.84,0,0,1,.27-.27.74.74,0,0,1,.39-.09.64.64,0,0,1,.4.14l.41.3a3,3,0,0,0,.58.3,2.39,2.39,0,0,0,.88.14,2.3,2.3,0,0,0,.76-.12,1.72,1.72,0,0,0,.56-.31,1.29,1.29,0,0,0,.35-.46,1.37,1.37,0,0,0,.12-.56,1,1,0,0,0-.18-.59,1.58,1.58,0,0,0-.48-.41,4,4,0,0,0-.68-.3l-.77-.28a7.38,7.38,0,0,1-.77-.34,2.77,2.77,0,0,1-.67-.48,2.14,2.14,0,0,1-.48-.7,2.56,2.56,0,0,1-.18-1,3.7,3.7,0,0,1,.27-1.39,3.51,3.51,0,0,1,.8-1.2,3.92,3.92,0,0,1,1.3-.83,4.65,4.65,0,0,1,1.77-.32,4.49,4.49,0,0,1,1.83.35,4.25,4.25,0,0,1,1.33.9Z" style="fill:#231f20"/><path d="M547,32.66a10.08,10.08,0,0,1-.28,2.4,9.2,9.2,0,0,1-.79,2.12,8.14,8.14,0,0,1-1.25,1.76,7.78,7.78,0,0,1-3.61,2.2,8.17,8.17,0,0,1-2.23.3,6.34,6.34,0,0,1-2.6-.51,5.77,5.77,0,0,1-2-1.42A6.21,6.21,0,0,1,533,37.37a8,8,0,0,1-.43-2.67,10.08,10.08,0,0,1,.28-2.4,9,9,0,0,1,.8-2.12,8.38,8.38,0,0,1,1.25-1.76,7.85,7.85,0,0,1,1.64-1.35,7.68,7.68,0,0,1,2-.86,8.17,8.17,0,0,1,2.24-.3,6.34,6.34,0,0,1,2.6.51,5.72,5.72,0,0,1,2,1.42A6.25,6.25,0,0,1,546.59,30,8.06,8.06,0,0,1,547,32.66Zm-2.79.06a6.35,6.35,0,0,0-.26-1.87,4.18,4.18,0,0,0-.75-1.44,3.31,3.31,0,0,0-1.19-.92,3.72,3.72,0,0,0-1.59-.33,4.49,4.49,0,0,0-3.65,1.77,6.25,6.25,0,0,0-1,2,9.14,9.14,0,0,0-.36,2.66,6.49,6.49,0,0,0,.25,1.87,4.11,4.11,0,0,0,.73,1.43,3.24,3.24,0,0,0,1.18.91,3.77,3.77,0,0,0,1.59.32,4.54,4.54,0,0,0,3.68-1.76,6.13,6.13,0,0,0,1-2A9.12,9.12,0,0,0,544.23,32.72Z" style="fill:#231f20"/><path d="M551.25,32.87A6.9,6.9,0,0,1,553,31a3.57,3.57,0,0,1,2.08-.69,2.93,2.93,0,0,1,1.22.25,2.48,2.48,0,0,1,.93.74,3.52,3.52,0,0,1,.6,1.25,6.66,6.66,0,0,1,.21,1.77,8.52,8.52,0,0,1-.19,1.8,8.63,8.63,0,0,1-.54,1.67,7.9,7.9,0,0,1-.82,1.45,6,6,0,0,1-1.07,1.14,4.87,4.87,0,0,1-1.25.76,3.62,3.62,0,0,1-1.38.27,3.16,3.16,0,0,1-1.32-.26,3.31,3.31,0,0,1-1-.71l-.54,4.34h-2.52l1.74-14.3h1.31a.93.93,0,0,1,.64.2.81.81,0,0,1,.23.64Zm-.58,5.88a2,2,0,0,0,.82.55,2.78,2.78,0,0,0,.9.16,2,2,0,0,0,1.26-.43,3.84,3.84,0,0,0,1-1.12,5.91,5.91,0,0,0,.63-1.56,7,7,0,0,0,.22-1.74,3,3,0,0,0-.37-1.68,1.18,1.18,0,0,0-1-.55,1.57,1.57,0,0,0-.87.29,3.86,3.86,0,0,0-.85.8,6.86,6.86,0,0,0-.76,1.2,9.77,9.77,0,0,0-.6,1.49Z" style="fill:#231f20"/><path d="M561.71,36.88q0,2.54,2.15,2.54a3.39,3.39,0,0,0,.82-.09,3.44,3.44,0,0,0,.63-.21,2.9,2.9,0,0,0,.48-.28l.4-.28a3.07,3.07,0,0,1,.36-.21.86.86,0,0,1,.39-.09.53.53,0,0,1,.25.06.76.76,0,0,1,.22.17l.66.8a11,11,0,0,1-1.09,1,6,6,0,0,1-1.09.67,5.12,5.12,0,0,1-1.18.39,6.75,6.75,0,0,1-1.34.13,4.41,4.41,0,0,1-1.71-.32,3.76,3.76,0,0,1-1.31-.9,4,4,0,0,1-.85-1.41,5.37,5.37,0,0,1-.3-1.84,7.6,7.6,0,0,1,.18-1.67,7.47,7.47,0,0,1,.53-1.55,6.59,6.59,0,0,1,.85-1.35,5.77,5.77,0,0,1,1.14-1.07,5.23,5.23,0,0,1,1.4-.7,5.16,5.16,0,0,1,1.63-.25,4.13,4.13,0,0,1,1.48.24,3.33,3.33,0,0,1,1.06.63,2.53,2.53,0,0,1,.64.86,2.26,2.26,0,0,1,.21.92,3,3,0,0,1-.29,1.32,2.71,2.71,0,0,1-1,1.07,7.31,7.31,0,0,1-2,.81,21.27,21.27,0,0,1-3.25.54Zm3.07-4.72a2.25,2.25,0,0,0-1,.21,2.7,2.7,0,0,0-.81.6,3.88,3.88,0,0,0-.63.93,5.77,5.77,0,0,0-.43,1.18,17.24,17.24,0,0,0,2.09-.39,5.38,5.38,0,0,0,1.22-.46,1.21,1.21,0,0,0,.71-1.14.86.86,0,0,0-.07-.33.84.84,0,0,0-.21-.3,1.18,1.18,0,0,0-.37-.22A1.49,1.49,0,0,0,564.78,32.15Z" style="fill:#231f20"/><path d="M572.8,32.72a5.86,5.86,0,0,1,1.82-1.8,4,4,0,0,1,2.06-.59,2.62,2.62,0,0,1,1.21.27,2.32,2.32,0,0,1,.88.79,3.43,3.43,0,0,1,.49,1.28,5.61,5.61,0,0,1,0,1.74l-.81,6.86h-2.59l.81-6.86a2.69,2.69,0,0,0-.1-1.51.91.91,0,0,0-.88-.46,1.83,1.83,0,0,0-.88.25,3.43,3.43,0,0,0-.87.7,5.67,5.67,0,0,0-.77,1.09,6.6,6.6,0,0,0-.57,1.42l-.6,5.36H569.4l1.29-10.78H572a.93.93,0,0,1,.64.2.81.81,0,0,1,.23.64Z" style="fill:#231f20"/><rect x="775.57" y="128.19" width="2.89" height="124.06" style="fill:#333"/><ellipse cx="777.02" cy="128.39" rx="4.3" ry="3.49" style="fill:#333"/><path d="M793.25,214.86l-.15,1.16h-4.82l.14-1.16h1.74l.69-5.6,0-.31c0-.11,0-.21.05-.32l-1.34,1.14a.56.56,0,0,1-.23.11.54.54,0,0,1-.21,0,.41.41,0,0,1-.16-.07.33.33,0,0,1-.1-.11l-.4-.67,2.94-2.43h1.27l-1,8.25Z" style="fill:#231f20"/><path d="M800.64,208l-.36,2.86h3.2l-.18,1.34h-3.18l-.47,3.85h-1.7l1.16-9.4h5.48l-.17,1.35Z" style="fill:#231f20"/><path d="M805.6,213.3q0,1.57,1.33,1.57a2,2,0,0,0,.89-.19,1.83,1.83,0,0,0,.3-.17l.25-.18.22-.13a.54.54,0,0,1,.24-.05.32.32,0,0,1,.15,0,.45.45,0,0,1,.13.1l.41.49a6.86,6.86,0,0,1-.68.6,3.68,3.68,0,0,1-.68.42,3.21,3.21,0,0,1-.73.24,4.2,4.2,0,0,1-.83.08,2.73,2.73,0,0,1-1.06-.2,2.34,2.34,0,0,1-.81-.56,2.5,2.5,0,0,1-.52-.87,3.33,3.33,0,0,1-.19-1.14,4.71,4.71,0,0,1,.44-2,4.06,4.06,0,0,1,.53-.84,3.59,3.59,0,0,1,.71-.66,3.26,3.26,0,0,1,.87-.44,3.2,3.2,0,0,1,1-.16,2.56,2.56,0,0,1,.91.15,2.07,2.07,0,0,1,.66.39,1.57,1.57,0,0,1,.39.53,1.42,1.42,0,0,1,.13.57,1.86,1.86,0,0,1-.18.82,1.68,1.68,0,0,1-.64.66,4.5,4.5,0,0,1-1.25.5,13.16,13.16,0,0,1-2,.33Zm1.9-2.93a1.39,1.39,0,0,0-.6.13,1.66,1.66,0,0,0-.5.37,2.38,2.38,0,0,0-.39.58,3.53,3.53,0,0,0-.26.73,10.64,10.64,0,0,0,1.3-.24,3.33,3.33,0,0,0,.76-.29.75.75,0,0,0,.44-.71.53.53,0,0,0,0-.2.51.51,0,0,0-.13-.18.71.71,0,0,0-.23-.14A.9.9,0,0,0,807.5,210.37Z" style="fill:#231f20"/><path d="M812.57,210.66a4.08,4.08,0,0,1,1-1,2.17,2.17,0,0,1,1.23-.38,1.8,1.8,0,0,1,.75.15,1.53,1.53,0,0,1,.58.46,2.18,2.18,0,0,1,.37.77,4.11,4.11,0,0,1,.13,1.1,5.28,5.28,0,0,1-.12,1.11,5.5,5.5,0,0,1-.33,1,4.65,4.65,0,0,1-.51.9,3.92,3.92,0,0,1-.66.71,3,3,0,0,1-.77.47,2.24,2.24,0,0,1-.85.17,2,2,0,0,1-1.59-.76l-.05.22a.74.74,0,0,1-.19.33.55.55,0,0,1-.38.11h-.87l1.17-9.66h1.57Zm-.47,3.79a1.21,1.21,0,0,0,.51.34,1.73,1.73,0,0,0,.57.1,1.26,1.26,0,0,0,.78-.27,2.33,2.33,0,0,0,.6-.7,3.79,3.79,0,0,0,.39-1,4.35,4.35,0,0,0,.14-1.08,1.9,1.9,0,0,0-.23-1,.72.72,0,0,0-.64-.34,1,1,0,0,0-.54.18,2.3,2.3,0,0,0-.53.49,4.35,4.35,0,0,0-.47.74,6.08,6.08,0,0,0-.37.92Z" style="fill:#231f20"/><path d="M800,241.21h-2.11a.8.8,0,0,1-.55-.17,1,1,0,0,1-.28-.45l-.63-3.17h-5.66l-1.41,3.17a1.16,1.16,0,0,1-.37.43,1,1,0,0,1-.59.19h-2.14L793.56,226h2.78Zm-4-5.71-1-5.2-.15-.83q-.08-.47-.17-1-.21.56-.41,1l-.36.84-2.3,5.19Z" style="fill:#231f20"/><path d="M804.54,232.81A6.89,6.89,0,0,1,806.3,231a3.57,3.57,0,0,1,2.08-.69,2.93,2.93,0,0,1,1.22.25,2.5,2.5,0,0,1,.93.74,3.52,3.52,0,0,1,.6,1.25,6.64,6.64,0,0,1,.21,1.77,8.55,8.55,0,0,1-.19,1.8,8.66,8.66,0,0,1-.54,1.67,7.93,7.93,0,0,1-.82,1.45,6.1,6.1,0,0,1-1.07,1.14,4.85,4.85,0,0,1-1.25.76,3.61,3.61,0,0,1-1.38.27,3.17,3.17,0,0,1-1.32-.26,3.31,3.31,0,0,1-1-.71l-.54,4.34H800.7l1.74-14.3h1.31a.93.93,0,0,1,.63.2.81.81,0,0,1,.23.64Zm-.58,5.88a2,2,0,0,0,.82.55,2.8,2.8,0,0,0,.9.16,2,2,0,0,0,1.26-.43,3.82,3.82,0,0,0,1-1.12,5.87,5.87,0,0,0,.63-1.56,7,7,0,0,0,.22-1.74,3,3,0,0,0-.37-1.69,1.18,1.18,0,0,0-1-.55,1.57,1.57,0,0,0-.87.29,3.86,3.86,0,0,0-.85.8,6.93,6.93,0,0,0-.76,1.2,9.73,9.73,0,0,0-.6,1.49Z" style="fill:#231f20"/><path d="M815.86,232.81a6.86,6.86,0,0,1,1.76-1.85,3.57,3.57,0,0,1,2.08-.69,2.93,2.93,0,0,1,1.22.25,2.49,2.49,0,0,1,.93.74,3.52,3.52,0,0,1,.6,1.25,6.68,6.68,0,0,1,.21,1.77,8.49,8.49,0,0,1-.19,1.8,8.59,8.59,0,0,1-.54,1.67,7.88,7.88,0,0,1-.82,1.45,6.1,6.1,0,0,1-1.07,1.14,4.89,4.89,0,0,1-1.25.76,3.62,3.62,0,0,1-1.38.27,3.16,3.16,0,0,1-1.32-.26,3.31,3.31,0,0,1-1-.71l-.54,4.34H812l1.74-14.3h1.31a.93.93,0,0,1,.64.2.81.81,0,0,1,.23.64Zm-.58,5.88a2,2,0,0,0,.82.55,2.8,2.8,0,0,0,.9.16,2,2,0,0,0,1.26-.43,3.85,3.85,0,0,0,1-1.12,5.94,5.94,0,0,0,.63-1.56,7,7,0,0,0,.22-1.74,3,3,0,0,0-.37-1.69,1.18,1.18,0,0,0-1-.55,1.56,1.56,0,0,0-.87.29,3.84,3.84,0,0,0-.85.8,6.87,6.87,0,0,0-.76,1.2,9.82,9.82,0,0,0-.6,1.49Z" style="fill:#231f20"/><path d="M823.8,241.21l1.89-15.6h2.56l-1.9,15.6Z" style="fill:#231f20"/><path d="M832.72,230.44l-1.29,10.77h-2.55l1.29-10.77Zm.66-3.14a1.43,1.43,0,0,1-.14.63,1.76,1.76,0,0,1-.37.51,1.86,1.86,0,0,1-.53.35,1.47,1.47,0,0,1-.61.13,1.38,1.38,0,0,1-.59-.13,1.77,1.77,0,0,1-.5-.35,1.72,1.72,0,0,1-.35-.51,1.52,1.52,0,0,1-.13-.63,1.55,1.55,0,0,1,.14-.64,1.8,1.8,0,0,1,.36-.53,1.68,1.68,0,0,1,.51-.36,1.43,1.43,0,0,1,.59-.13,1.49,1.49,0,0,1,.61.13,1.78,1.78,0,0,1,.52.35,1.7,1.7,0,0,1,.36.52A1.58,1.58,0,0,1,833.39,227.3Z" style="fill:#231f20"/><path d="M841.2,240.29a4.94,4.94,0,0,1-1,.64,4.16,4.16,0,0,1-1.06.34,6.83,6.83,0,0,1-1.21.1,4.19,4.19,0,0,1-1.67-.32,3.49,3.49,0,0,1-1.25-.91,4,4,0,0,1-.79-1.42,5.9,5.9,0,0,1-.27-1.85,7.63,7.63,0,0,1,.19-1.7,7.25,7.25,0,0,1,.55-1.56,6.65,6.65,0,0,1,.86-1.34,5.74,5.74,0,0,1,1.13-1.05,5.32,5.32,0,0,1,1.37-.69,5,5,0,0,1,1.57-.25,4,4,0,0,1,1.82.38,3.87,3.87,0,0,1,1.33,1.13l-.83,1a1,1,0,0,1-.21.17.5.5,0,0,1-.27.08.51.51,0,0,1-.32-.11l-.34-.24a2.55,2.55,0,0,0-.48-.24,2.13,2.13,0,0,0-.75-.11,2.2,2.2,0,0,0-1.14.33,3.17,3.17,0,0,0-1,.92,4.87,4.87,0,0,0-.67,1.44,6.56,6.56,0,0,0-.25,1.86,2.83,2.83,0,0,0,.53,1.83,1.74,1.74,0,0,0,1.43.65,2.67,2.67,0,0,0,.7-.08,2.81,2.81,0,0,0,.54-.21,2.42,2.42,0,0,0,.42-.26l.34-.26.3-.21a.6.6,0,0,1,.31-.08.51.51,0,0,1,.26.07.89.89,0,0,1,.22.17l.65.8A9.66,9.66,0,0,1,841.2,240.29Z" style="fill:#231f20"/><path d="M849.7,239a6.46,6.46,0,0,1-1.61,1.75,3.26,3.26,0,0,1-2,.65,2.71,2.71,0,0,1-1.14-.24,2.57,2.57,0,0,1-.92-.72,3.51,3.51,0,0,1-.62-1.2,5.65,5.65,0,0,1-.23-1.69,7.31,7.31,0,0,1,.24-1.88,7.39,7.39,0,0,1,1.76-3.19,6.87,6.87,0,0,1,3.1-1.91,6.74,6.74,0,0,1,1.92-.27,10.16,10.16,0,0,1,1.45.11,6.37,6.37,0,0,1,1.42.38l-1.29,10.45h-1.37a.77.77,0,0,1-.67-.25,1,1,0,0,1-.17-.61Zm.71-6.82-.28,0h-.26a3.36,3.36,0,0,0-1.62.4,4.11,4.11,0,0,0-1.29,1.08,5.25,5.25,0,0,0-.85,1.57,5.78,5.78,0,0,0-.31,1.9,3,3,0,0,0,.36,1.66,1.12,1.12,0,0,0,1,.53,1.43,1.43,0,0,0,.84-.3,3.56,3.56,0,0,0,.79-.82,6.87,6.87,0,0,0,.68-1.22,11.72,11.72,0,0,0,.54-1.51Z" style="fill:#231f20"/><path d="M864.33,241.21h-2.5l1.09-8.87h-4.48l-.59,4.74-.08.68c0,.17,0,.3,0,.39l0,.2s0,.07,0,.08a1,1,0,0,0,.19.63.68.68,0,0,0,.55.23,1.08,1.08,0,0,0,.38-.06l.27-.12.21-.12a.35.35,0,0,1,.18-.06.26.26,0,0,1,.18.06.54.54,0,0,1,.12.17l.57,1.26a4.34,4.34,0,0,1-2.7,1,2.56,2.56,0,0,1-1.81-.62,2.39,2.39,0,0,1-.71-1.74v-.17c0-.07,0-.17,0-.29s0-.3.05-.51.06-.49.1-.82l.6-4.87h-1a.42.42,0,0,1-.33-.13.47.47,0,0,1-.09-.39l.13-1,1.6-.27.88-3a.63.63,0,0,1,.21-.33.57.57,0,0,1,.37-.12h1.4l-.42,3.42h7Zm2.21-13.91a1.43,1.43,0,0,1-.14.63,1.81,1.81,0,0,1-.37.51,1.78,1.78,0,0,1-.52.35,1.47,1.47,0,0,1-.61.13,1.41,1.41,0,0,1-.59-.13,1.73,1.73,0,0,1-.51-.35,1.7,1.7,0,0,1-.35-.51,1.58,1.58,0,0,1,0-1.27,1.81,1.81,0,0,1,.36-.53,1.69,1.69,0,0,1,.51-.36,1.43,1.43,0,0,1,.59-.13,1.49,1.49,0,0,1,.61.13,1.76,1.76,0,0,1,.52.35,1.68,1.68,0,0,1,.36.52A1.58,1.58,0,0,1,866.53,227.3Z" style="fill:#231f20"/><path d="M871,241.37a4.45,4.45,0,0,1-1.65-.3,3.68,3.68,0,0,1-1.31-.88,4.07,4.07,0,0,1-.87-1.42,5.45,5.45,0,0,1-.31-1.92,7.38,7.38,0,0,1,.45-2.6,6.69,6.69,0,0,1,1.22-2.09,5.71,5.71,0,0,1,1.8-1.39,4.92,4.92,0,0,1,2.19-.5,4.48,4.48,0,0,1,1.65.3,3.62,3.62,0,0,1,1.31.88,4.1,4.1,0,0,1,.87,1.42,5.46,5.46,0,0,1,.32,1.92,7.3,7.3,0,0,1-.45,2.59,6.8,6.8,0,0,1-1.22,2.09,5.75,5.75,0,0,1-1.8,1.4A4.88,4.88,0,0,1,871,241.37Zm.24-2a2,2,0,0,0,1.18-.37,3.16,3.16,0,0,0,.89-1,5.29,5.29,0,0,0,.57-1.46,7.44,7.44,0,0,0,.2-1.74,3.34,3.34,0,0,0-.44-1.93,1.54,1.54,0,0,0-1.34-.61,2,2,0,0,0-1.18.37,3.1,3.1,0,0,0-.9,1,5.28,5.28,0,0,0-.57,1.45,7.49,7.49,0,0,0-.2,1.75,3.34,3.34,0,0,0,.44,1.93A1.56,1.56,0,0,0,871.27,239.37Z" style="fill:#231f20"/><path d="M881.24,232.66a5.87,5.87,0,0,1,1.82-1.8,4,4,0,0,1,2.06-.59,2.63,2.63,0,0,1,1.21.27,2.32,2.32,0,0,1,.88.79,3.43,3.43,0,0,1,.49,1.28,5.6,5.6,0,0,1,0,1.74l-.81,6.86h-2.59l.81-6.86a2.69,2.69,0,0,0-.1-1.51.91.91,0,0,0-.88-.46,1.84,1.84,0,0,0-.88.25,3.46,3.46,0,0,0-.87.7,5.59,5.59,0,0,0-.77,1.09,6.53,6.53,0,0,0-.57,1.42l-.6,5.35h-2.59l1.29-10.78h1.31a.93.93,0,0,1,.63.2.81.81,0,0,1,.23.64Z" style="fill:#231f20"/><path d="M896.37,232.47a.87.87,0,0,1-.22.24.5.5,0,0,1-.27.07.77.77,0,0,1-.38-.11l-.44-.24a3.65,3.65,0,0,0-.57-.24,2.47,2.47,0,0,0-.76-.1,1.92,1.92,0,0,0-1.27.37,1.17,1.17,0,0,0-.44.93.86.86,0,0,0,.31.69,3,3,0,0,0,.78.46l1,.4a5.15,5.15,0,0,1,1,.51,2.62,2.62,0,0,1,.78.8,2.31,2.31,0,0,1,.31,1.25,3.66,3.66,0,0,1-1.2,2.71,4.28,4.28,0,0,1-1.39.84,5.13,5.13,0,0,1-1.83.31,4.86,4.86,0,0,1-1-.1,4.62,4.62,0,0,1-.9-.28,4.28,4.28,0,0,1-.76-.42,3.09,3.09,0,0,1-.59-.52l.64-1a.85.85,0,0,1,.27-.27.75.75,0,0,1,.39-.09.64.64,0,0,1,.4.14l.41.3a3,3,0,0,0,.58.3,2.39,2.39,0,0,0,.88.14,2.3,2.3,0,0,0,.76-.12,1.72,1.72,0,0,0,.56-.32,1.3,1.3,0,0,0,.35-.46,1.36,1.36,0,0,0,.12-.56,1,1,0,0,0-.18-.59,1.57,1.57,0,0,0-.48-.41,3.87,3.87,0,0,0-.68-.3l-.77-.28a7.64,7.64,0,0,1-.77-.34,2.75,2.75,0,0,1-.67-.48,2.14,2.14,0,0,1-.48-.7,2.56,2.56,0,0,1-.18-1,3.69,3.69,0,0,1,.27-1.39,3.52,3.52,0,0,1,.8-1.2,3.92,3.92,0,0,1,1.3-.83,4.65,4.65,0,0,1,1.77-.31,4.49,4.49,0,0,1,1.83.35,4.24,4.24,0,0,1,1.33.9Z" style="fill:#231f20"/><path d="M909.08,239.07a5.45,5.45,0,0,0,1.11-.1,4.15,4.15,0,0,0,.83-.26,3.54,3.54,0,0,0,.6-.33l.44-.33.34-.26a.52.52,0,0,1,.29-.1.41.41,0,0,1,.22.05l.14.11,1,1.19a6.73,6.73,0,0,1-2.32,1.74,7.37,7.37,0,0,1-3.07.6,6,6,0,0,1-2.5-.5,5.26,5.26,0,0,1-1.84-1.38,6.12,6.12,0,0,1-1.14-2.09,8.48,8.48,0,0,1-.39-2.64,10.56,10.56,0,0,1,.28-2.48,9.3,9.3,0,0,1,.81-2.16,8.37,8.37,0,0,1,1.25-1.78,7.83,7.83,0,0,1,1.63-1.34,7.59,7.59,0,0,1,1.93-.85,7.85,7.85,0,0,1,2.16-.29,7,7,0,0,1,1.51.15,5.45,5.45,0,0,1,1.23.42,4.82,4.82,0,0,1,1,.66,5.51,5.51,0,0,1,.8.86l-.94,1.13a1.13,1.13,0,0,1-.25.22.62.62,0,0,1-.35.09.65.65,0,0,1-.44-.19,5.67,5.67,0,0,0-.53-.42,3.67,3.67,0,0,0-.83-.42,3.93,3.93,0,0,0-1.34-.19,4.67,4.67,0,0,0-2,.45,4.79,4.79,0,0,0-1.63,1.28,6.11,6.11,0,0,0-1.09,2,8.22,8.22,0,0,0-.39,2.63,6.24,6.24,0,0,0,.27,1.9,4.25,4.25,0,0,0,.75,1.42,3.21,3.21,0,0,0,2.55,1.2Z" style="fill:#231f20"/><path d="M915.37,241.21l1.89-15.6h2.56l-1.9,15.6Z" style="fill:#231f20"/><path d="M924.53,241.37a4.45,4.45,0,0,1-1.65-.3,3.68,3.68,0,0,1-1.31-.88,4.07,4.07,0,0,1-.87-1.42,5.45,5.45,0,0,1-.32-1.92,7.36,7.36,0,0,1,.45-2.6,6.69,6.69,0,0,1,1.22-2.09,5.72,5.72,0,0,1,1.8-1.39,4.93,4.93,0,0,1,2.19-.5,4.49,4.49,0,0,1,1.65.3,3.63,3.63,0,0,1,1.31.88,4.12,4.12,0,0,1,.87,1.42,5.46,5.46,0,0,1,.31,1.92,7.3,7.3,0,0,1-.45,2.59,6.79,6.79,0,0,1-1.22,2.09,5.75,5.75,0,0,1-1.8,1.4A4.88,4.88,0,0,1,924.53,241.37Zm.24-2A2,2,0,0,0,926,239a3.18,3.18,0,0,0,.89-1,5.29,5.29,0,0,0,.57-1.46,7.38,7.38,0,0,0,.2-1.74,3.34,3.34,0,0,0-.44-1.93,1.54,1.54,0,0,0-1.34-.61,2,2,0,0,0-1.18.37,3.09,3.09,0,0,0-.9,1,5.28,5.28,0,0,0-.57,1.45,7.49,7.49,0,0,0-.2,1.75,3.34,3.34,0,0,0,.44,1.93A1.56,1.56,0,0,0,924.78,239.37Z" style="fill:#231f20"/><path d="M938.52,232.47a.87.87,0,0,1-.22.24.5.5,0,0,1-.27.07.77.77,0,0,1-.38-.11l-.44-.24a3.65,3.65,0,0,0-.57-.24,2.47,2.47,0,0,0-.76-.1,1.92,1.92,0,0,0-1.27.37,1.17,1.17,0,0,0-.44.93.86.86,0,0,0,.31.69,3,3,0,0,0,.78.46l1,.4a5.15,5.15,0,0,1,1,.51,2.62,2.62,0,0,1,.78.8,2.31,2.31,0,0,1,.31,1.25,3.66,3.66,0,0,1-1.2,2.71,4.28,4.28,0,0,1-1.39.84,5.13,5.13,0,0,1-1.83.31,4.86,4.86,0,0,1-1-.1,4.62,4.62,0,0,1-.9-.28,4.28,4.28,0,0,1-.76-.42,3.09,3.09,0,0,1-.59-.52l.64-1a.85.85,0,0,1,.27-.27.75.75,0,0,1,.39-.09.64.64,0,0,1,.4.14l.41.3a3,3,0,0,0,.58.3,2.39,2.39,0,0,0,.88.14,2.3,2.3,0,0,0,.76-.12,1.72,1.72,0,0,0,.56-.32,1.3,1.3,0,0,0,.35-.46,1.36,1.36,0,0,0,.12-.56,1,1,0,0,0-.18-.59,1.57,1.57,0,0,0-.48-.41,3.87,3.87,0,0,0-.68-.3l-.77-.28a7.64,7.64,0,0,1-.77-.34,2.75,2.75,0,0,1-.67-.48,2.14,2.14,0,0,1-.48-.7,2.56,2.56,0,0,1-.18-1,3.69,3.69,0,0,1,.27-1.39,3.52,3.52,0,0,1,.8-1.2,3.92,3.92,0,0,1,1.3-.83,4.65,4.65,0,0,1,1.77-.31,4.49,4.49,0,0,1,1.83.35,4.24,4.24,0,0,1,1.33.9Z" style="fill:#231f20"/><path d="M942.41,236.82q0,2.54,2.15,2.54a3.32,3.32,0,0,0,1.44-.3,3,3,0,0,0,.48-.28l.4-.28a3.11,3.11,0,0,1,.36-.21.86.86,0,0,1,.39-.09.53.53,0,0,1,.25.06.77.77,0,0,1,.21.17l.66.8a11.07,11.07,0,0,1-1.09,1,6,6,0,0,1-1.09.67,5.11,5.11,0,0,1-1.18.39,6.75,6.75,0,0,1-1.34.13,4.41,4.41,0,0,1-1.71-.32,3.77,3.77,0,0,1-1.31-.9,4,4,0,0,1-.84-1.41,5.35,5.35,0,0,1-.3-1.84,7.63,7.63,0,0,1,.18-1.67,7.54,7.54,0,0,1,.53-1.55,6.63,6.63,0,0,1,.85-1.35,5.76,5.76,0,0,1,1.14-1.07,5.14,5.14,0,0,1,3-1,4.15,4.15,0,0,1,1.47.24,3.34,3.34,0,0,1,1.06.63,2.55,2.55,0,0,1,.64.86,2.28,2.28,0,0,1,.21.92,3,3,0,0,1-.29,1.32,2.7,2.7,0,0,1-1,1.07,7.25,7.25,0,0,1-2,.81,21.29,21.29,0,0,1-3.25.54Zm3.07-4.72a2.24,2.24,0,0,0-1,.21,2.69,2.69,0,0,0-.81.6,3.88,3.88,0,0,0-.63.93,5.76,5.76,0,0,0-.43,1.18,17.05,17.05,0,0,0,2.09-.39,5.33,5.33,0,0,0,1.22-.46,1.21,1.21,0,0,0,.71-1.14.86.86,0,0,0-.07-.33.82.82,0,0,0-.21-.3,1.16,1.16,0,0,0-.37-.22A1.47,1.47,0,0,0,945.47,232.1Z" style="fill:#231f20"/><rect x="948.18" width="2.89" height="130.2" transform="translate(1899.25 130.2) rotate(180)" style="fill:#333"/><ellipse cx="949.62" cy="129.99" rx="4.3" ry="3.67" style="fill:#333"/><path d="M970.78,6.67l-1.16,9.4h-1.48l.75-6.12c0-.11,0-.23.06-.36s.05-.26.08-.4l-3.23,5.36a.72.72,0,0,1-.64.36h-.23a.63.63,0,0,1-.34-.09.51.51,0,0,1-.21-.27l-1.94-5.36c0,.13,0,.26,0,.39s0,.24,0,.35l-.74,6.15h-1.49l1.16-9.4h1.45l.13,0a.38.38,0,0,1,.11.08l.11.14,1.94,5.37a6.61,6.61,0,0,1,.2.7l.17-.36c.06-.12.12-.23.19-.34l3.26-5.37L969,6.8l.13-.08.14,0h1.47Z" style="fill:#231f20"/><path d="M973.72,9.4l-.8,6.67h-1.58l.8-6.67Zm.41-1.94a.88.88,0,0,1-.09.39,1.11,1.11,0,0,1-.23.32,1.16,1.16,0,0,1-.33.22.93.93,0,0,1-.38.08.86.86,0,0,1-.36-.08,1.1,1.1,0,0,1-.31-.22,1.07,1.07,0,0,1-.22-.32.94.94,0,0,1-.08-.39,1,1,0,0,1,.08-.4,1.1,1.1,0,0,1,.22-.33,1,1,0,0,1,.32-.22.87.87,0,0,1,.37-.08.91.91,0,0,1,.38.08,1.08,1.08,0,0,1,.32.22,1,1,0,0,1,.22.32A1,1,0,0,1,974.13,7.46Z" style="fill:#231f20"/><path d="M981.17,6.41,980,16.07h-.85a.47.47,0,0,1-.41-.15.64.64,0,0,1-.11-.38l.06-.93a5,5,0,0,1-.51.65,3.39,3.39,0,0,1-.57.49,2.61,2.61,0,0,1-.62.31,2,2,0,0,1-.66.11,1.81,1.81,0,0,1-.75-.15,1.54,1.54,0,0,1-.58-.46,2.18,2.18,0,0,1-.37-.77,4.14,4.14,0,0,1-.13-1.1,5.24,5.24,0,0,1,.12-1.11,5.34,5.34,0,0,1,.33-1,4.93,4.93,0,0,1,.51-.9,3.75,3.75,0,0,1,.66-.71,3,3,0,0,1,.78-.47,2.23,2.23,0,0,1,.86-.17,2,2,0,0,1,.81.16,2,2,0,0,1,.64.45l.44-3.5ZM979,11a1.21,1.21,0,0,0-.51-.34,1.74,1.74,0,0,0-.57-.1,1.26,1.26,0,0,0-.78.27,2.33,2.33,0,0,0-.6.7,3.78,3.78,0,0,0-.39,1,4.35,4.35,0,0,0-.14,1.08,1.89,1.89,0,0,0,.23,1,.73.73,0,0,0,.64.34,1,1,0,0,0,.53-.18,2.35,2.35,0,0,0,.53-.49,4.27,4.27,0,0,0,.47-.74,6.11,6.11,0,0,0,.37-.92Z" style="fill:#231f20"/><path d="M982,11.5h3.13l-.17,1.29h-3.11Z" style="fill:#231f20"/><path d="M987.56,13.35q0,1.57,1.33,1.57a2.08,2.08,0,0,0,.89-.19,1.77,1.77,0,0,0,.3-.18l.25-.18.22-.13a.52.52,0,0,1,.24-.06.33.33,0,0,1,.15,0,.46.46,0,0,1,.13.1l.41.49a6.86,6.86,0,0,1-.68.6,3.78,3.78,0,0,1-.68.42,3.19,3.19,0,0,1-.73.24,4.2,4.2,0,0,1-.83.08,2.73,2.73,0,0,1-1.06-.2,2.34,2.34,0,0,1-.81-.56,2.5,2.5,0,0,1-.52-.87A3.32,3.32,0,0,1,986,13.4a4.69,4.69,0,0,1,.44-2,4,4,0,0,1,.53-.84,3.54,3.54,0,0,1,.71-.66,3.19,3.19,0,0,1,1.88-.59,2.56,2.56,0,0,1,.91.15,2.06,2.06,0,0,1,.66.39,1.58,1.58,0,0,1,.39.53,1.41,1.41,0,0,1,.13.57,1.86,1.86,0,0,1-.18.82,1.68,1.68,0,0,1-.64.66,4.5,4.5,0,0,1-1.25.5,13.26,13.26,0,0,1-2,.33Zm1.9-2.92a1.38,1.38,0,0,0-.6.13,1.67,1.67,0,0,0-.5.37,2.43,2.43,0,0,0-.39.58,3.65,3.65,0,0,0-.26.73A10.77,10.77,0,0,0,989,12a3.29,3.29,0,0,0,.76-.29.75.75,0,0,0,.44-.71.55.55,0,0,0,0-.2.54.54,0,0,0-.13-.19.74.74,0,0,0-.23-.14A.93.93,0,0,0,989.46,10.43Z" style="fill:#231f20"/><path d="M994.42,10.78a3.63,3.63,0,0,1,1.13-1.11,2.46,2.46,0,0,1,1.27-.37,1.62,1.62,0,0,1,.75.17,1.43,1.43,0,0,1,.54.49,2.11,2.11,0,0,1,.3.79,3.45,3.45,0,0,1,0,1.08l-.5,4.24h-1.61l.5-4.24a1.66,1.66,0,0,0-.06-.93.56.56,0,0,0-.55-.28,1.13,1.13,0,0,0-.55.15,2.11,2.11,0,0,0-.54.44,3.47,3.47,0,0,0-.48.68,4,4,0,0,0-.35.88l-.37,3.31h-1.61l.8-6.67h.81a.58.58,0,0,1,.39.12.51.51,0,0,1,.14.4Z" style="fill:#231f20"/><path d="M1006.06,6.41l-1.2,9.66H1004a.48.48,0,0,1-.41-.15.65.65,0,0,1-.11-.38l.06-.93a5,5,0,0,1-.51.65,3.43,3.43,0,0,1-.57.49,2.62,2.62,0,0,1-.62.31,2,2,0,0,1-.66.11,1.81,1.81,0,0,1-.75-.15,1.53,1.53,0,0,1-.58-.46,2.15,2.15,0,0,1-.37-.77,4.14,4.14,0,0,1-.13-1.1,5.31,5.31,0,0,1,.12-1.11,5.41,5.41,0,0,1,.33-1,4.87,4.87,0,0,1,.51-.9,3.79,3.79,0,0,1,.66-.71,3,3,0,0,1,.78-.47,2.22,2.22,0,0,1,.85-.17,1.94,1.94,0,0,1,1.45.61l.44-3.5ZM1003.92,11a1.21,1.21,0,0,0-.51-.34,1.74,1.74,0,0,0-.57-.1,1.26,1.26,0,0,0-.78.27,2.33,2.33,0,0,0-.6.7,3.65,3.65,0,0,0-.39,1,4.31,4.31,0,0,0-.14,1.08,1.88,1.88,0,0,0,.23,1,.73.73,0,0,0,.64.34,1,1,0,0,0,.53-.18,2.3,2.3,0,0,0,.53-.49,4.22,4.22,0,0,0,.47-.74,6.11,6.11,0,0,0,.37-.92Z" style="fill:#231f20"/><path d="M1020.05,6.67l-1.16,9.4h-1.48l.75-6.12c0-.11,0-.23.06-.36s.05-.26.08-.4l-3.23,5.36a.72.72,0,0,1-.64.36h-.23a.63.63,0,0,1-.34-.09.51.51,0,0,1-.21-.27l-1.94-5.36c0,.13,0,.26,0,.39s0,.24,0,.35l-.74,6.15h-1.49l1.16-9.4h1.45l.13,0a.4.4,0,0,1,.11.08l.11.14,1.94,5.37a6.6,6.6,0,0,1,.19.7l.17-.36c.06-.12.12-.23.19-.34l3.26-5.37.14-.14.13-.08.14,0h1.47Z" style="fill:#231f20"/><path d="M1024.41,14.68a4,4,0,0,1-1,1.08,2,2,0,0,1-1.21.4,1.68,1.68,0,0,1-.71-.15,1.58,1.58,0,0,1-.57-.45,2.18,2.18,0,0,1-.38-.74,3.51,3.51,0,0,1-.14-1,4.53,4.53,0,0,1,.15-1.16,4.64,4.64,0,0,1,.43-1.06,4.59,4.59,0,0,1,.67-.91,4.26,4.26,0,0,1,1.92-1.18,4.18,4.18,0,0,1,1.19-.17,6.37,6.37,0,0,1,.9.07,3.88,3.88,0,0,1,.88.23l-.8,6.47h-.85a.47.47,0,0,1-.41-.15.65.65,0,0,1-.11-.38Zm.44-4.23h-.33a2.09,2.09,0,0,0-1,.25,2.56,2.56,0,0,0-.8.67,3.22,3.22,0,0,0-.53,1,3.57,3.57,0,0,0-.19,1.17,1.86,1.86,0,0,0,.22,1,.69.69,0,0,0,.6.33.89.89,0,0,0,.52-.19,2.21,2.21,0,0,0,.49-.51,4.12,4.12,0,0,0,.42-.76,7,7,0,0,0,.33-.94Z" style="fill:#231f20"/><path d="M1029.32,11a4.76,4.76,0,0,1,.54-.85,2.57,2.57,0,0,1,.6-.55,1.49,1.49,0,0,1,.64-.23,1.3,1.3,0,0,1,.66.11l-.29,1.53a1.26,1.26,0,0,0-1.39.16,3.67,3.67,0,0,0-1,1.94l-.36,3h-1.57l.81-6.67h.82a.57.57,0,0,1,.39.12.51.51,0,0,1,.14.4Z" style="fill:#231f20"/><path d="M966.95,26.08a7,7,0,0,1,2.22.31,4.11,4.11,0,0,1,1.53.87,3.43,3.43,0,0,1,.89,1.32,4.67,4.67,0,0,1,.29,1.67,6.42,6.42,0,0,1-.38,2.25,4.79,4.79,0,0,1-1.15,1.79,5.33,5.33,0,0,1-1.92,1.18,7.7,7.7,0,0,1-2.68.43h-1.89l-.66,5.38h-2.71l1.85-15.18ZM966,33.77a3.66,3.66,0,0,0,1.4-.24,2.57,2.57,0,0,0,1-.68,2.79,2.79,0,0,0,.57-1,4.51,4.51,0,0,0,.18-1.32,2.92,2.92,0,0,0-.15-.94,1.85,1.85,0,0,0-.45-.73,2.11,2.11,0,0,0-.76-.47,3.15,3.15,0,0,0-1.09-.17h-1.89l-.68,5.59Z" style="fill:#231f20"/><path d="M975.42,41.27h-2.74l1.85-15.18h2.74Z" style="fill:#231f20"/><path d="M990,28.32H985.8l-1.6,12.95H981.5l1.58-12.95H978.9l.27-2.24h11.06Z" style="fill:#231f20"/><path d="M996.28,39.13a5.45,5.45,0,0,0,1.11-.1,4.25,4.25,0,0,0,.83-.26,3.56,3.56,0,0,0,.6-.33l.44-.33.34-.26a.52.52,0,0,1,.29-.1.41.41,0,0,1,.22.05l.14.1,1,1.19a6.74,6.74,0,0,1-2.32,1.74,7.37,7.37,0,0,1-3.07.6,6,6,0,0,1-2.5-.5,5.25,5.25,0,0,1-1.84-1.38,6.08,6.08,0,0,1-1.14-2.09,8.46,8.46,0,0,1-.39-2.64,10.55,10.55,0,0,1,.28-2.48,9.3,9.3,0,0,1,.81-2.16,8.33,8.33,0,0,1,1.26-1.78,7.83,7.83,0,0,1,1.63-1.34,7.59,7.59,0,0,1,1.93-.85,7.88,7.88,0,0,1,2.16-.29,7,7,0,0,1,1.51.15,5.41,5.41,0,0,1,1.23.43,4.76,4.76,0,0,1,1,.66,5.43,5.43,0,0,1,.8.86l-.95,1.13a1.17,1.17,0,0,1-.25.22.63.63,0,0,1-.35.09.65.65,0,0,1-.44-.19,5.83,5.83,0,0,0-.53-.41,3.61,3.61,0,0,0-.83-.42,3.92,3.92,0,0,0-1.34-.19,4.68,4.68,0,0,0-2,.45A4.78,4.78,0,0,0,994.2,30a6.12,6.12,0,0,0-1.09,2,8.22,8.22,0,0,0-.39,2.63,6.24,6.24,0,0,0,.27,1.9,4.22,4.22,0,0,0,.75,1.42,3.21,3.21,0,0,0,2.54,1.2Z" style="fill:#231f20"/><path d="M1016.67,26.08l-1.87,15.18h-2.75l.83-6.67h-6.39l-.82,6.67h-2.74l1.87-15.18h2.74l-.81,6.58h6.38l.82-6.58Z" style="fill:#231f20"/><path d="M1036.08,32.66a9.63,9.63,0,0,1-.61,3.48,8.12,8.12,0,0,1-1.7,2.72,7.67,7.67,0,0,1-2.58,1.77,8.2,8.2,0,0,1-3.25.64h-5.34l1.87-15.18h5.35a6.6,6.6,0,0,1,2.61.49,5.69,5.69,0,0,1,2,1.36,6,6,0,0,1,1.24,2.08A7.7,7.7,0,0,1,1036.08,32.66Zm-2.79.06a6.35,6.35,0,0,0-.25-1.85,4.06,4.06,0,0,0-.73-1.41,3.2,3.2,0,0,0-1.17-.9,3.79,3.79,0,0,0-1.59-.32h-2.6l-1.34,10.85h2.61a4.81,4.81,0,0,0,2.08-.44,4.54,4.54,0,0,0,1.6-1.27,5.92,5.92,0,0,0,1-2A9.07,9.07,0,0,0,1033.28,32.72Z" style="fill:#231f20"/><path d="M1049.15,41.27H1047a.8.8,0,0,1-.55-.17,1,1,0,0,1-.28-.45l-.63-3.17h-5.66l-1.41,3.17a1.15,1.15,0,0,1-.37.43,1,1,0,0,1-.59.19h-2.14l7.34-15.18h2.78Zm-4-5.71-1-5.2-.15-.83q-.08-.47-.17-1-.21.56-.41,1l-.36.84-2.3,5.19Z" style="fill:#231f20"/><path d="M1056,35.35l-.74,5.92h-2.72l.74-5.9-4-9.28h2.42a.84.84,0,0,1,.56.17,1,1,0,0,1,.29.45l2,5.25q.14.39.23.75c.06.24.12.47.17.7.11-.23.23-.46.36-.7l.42-.75L1059,26.7a1.61,1.61,0,0,1,.39-.43.91.91,0,0,1,.58-.19h2.26Z" style="fill:#231f20"/></g></g></svg>