<svg xmlns="http://www.w3.org/2000/svg" viewBox="0 0 294.82 145.03"><title>handshake</title><g id="Layer_2" data-name="Layer 2"><g id="Layer_1-2" data-name="Layer 1"><path d="M207,91.67l-6.76-4.92,3.07-3.07-6.76-21.52L157.22,30.8a18.15,18.15,0,0,0-16.6-3.07L103.73,40,82.21,89.22l4.92,3.69h0l71.32,48.57a8.87,8.87,0,0,0,9.84-14.76l-6.15-4.3,9.84,6.76a8.87,8.87,0,0,0,9.84-14.76l3.07,2.46a8.87,8.87,0,0,0,9.84-14.76l3.07,2.46a9,9,0,0,0,12.3-2.46C212.56,99.67,211.33,94.13,207,91.67Z" style="fill:#ffd15d"/><path d="M207,91.67a9.56,9.56,0,0,1,3.69,4.92l33.82-26.44L214.41,32,193.5,43.71,164,33.26a8.59,8.59,0,0,0-9.22,1.84L135.7,52.94c-1.84,1.84-3.07,4.3-2.46,6.76.62,5.53,1.23,16,4.3,23.36a8.14,8.14,0,0,0,12.3,3.69h0c1.84-1.23,3.07-3.69,3.69-5.53,1.23-4.3,3.69-12.3,1.23-17.83L156,62.16c1.23-1.84,3.69-1.84,5.53-.62Z" style="fill:#f6b64c"/><path d="M114.18,97.82a8.14,8.14,0,0,0-3.69-12.3A8.83,8.83,0,0,0,99.43,88.6l-8.61,12.91c-2.46,3.69-1.84,9.22,2.46,11.68h0a8.32,8.32,0,0,0,12.3-2.46Z" style="fill:#f6b64c"/><path d="M107.42,123.65h0a8.32,8.32,0,0,0,12.3-2.46L128.94,107h0l3.07-4.3a9.51,9.51,0,0,0-1.84-12.3c-4.3-3.07-9.22-1.84-12.3,2.46l-3.07,4.92h0L105.57,112C102.5,115.65,103.73,120.57,107.42,123.65Z" style="fill:#f6b64c"/><path d="M140,104A8.83,8.83,0,0,0,128.94,107L119.1,121.8c-2.46,3.69-1.84,9.22,2.46,11.68h0a8.32,8.32,0,0,0,12.3-2.46l9.84-14.76C146.16,112.58,144.31,106.43,140,104Z" style="fill:#f6b64c"/><path d="M148.61,121.8a8.83,8.83,0,0,0-11.07,3.07l-4.3,6.76c-2.46,3.69-1.84,9.22,2.46,11.68h0a8.32,8.32,0,0,0,12.3-2.46l4.3-6.76C154.76,130.41,153.53,124.26,148.61,121.8Z" style="fill:#f6b64c"/><rect x="41.32" y="42.75" width="70.1" height="36.28" transform="translate(-9.99 106.52) rotate(-66.42)" style="fill:#e8eae9"/><rect x="2.58" y="22.63" width="92.85" height="66.41" transform="translate(-21.77 78.41) rotate(-66.42)" style="fill:#425b6c"/><circle cx="50.24" cy="91.06" r="6.15" style="fill:#354b5e"/><rect x="200.07" y="25.88" width="36.28" height="70.1" transform="translate(-6.15 92.39) rotate(-23.58)" style="fill:#e8eae9"/><rect x="212.61" y="9.49" width="66.41" height="92.85" transform="translate(-1.84 103.02) rotate(-23.58)" style="fill:#425b6c"/><circle cx="244.53" cy="91.06" r="6.15" style="fill:#354b5e"/></g></g></svg>