<svg xmlns="http://www.w3.org/2000/svg" viewBox="0 0 143.37 201.25"><title>verified</title><g id="Layer_2" data-name="Layer 2"><g id="Layer_1-2" data-name="Layer 1"><path d="M140.77,201.25H2.55A2.55,2.55,0,0,1,0,198.7V23.54A2.55,2.55,0,0,1,2.55,21H140.82a2.55,2.55,0,0,1,2.55,2.55V198.75A2.62,2.62,0,0,1,140.77,201.25Z" style="fill:#334b5e"/><polygon points="14.1 31.3 14.1 173.86 109.14 173.86 109.14 153.84 129.21 153.84 129.21 31.3 14.1 31.3" style="fill:#fff"/><polygon points="109.14 173.86 129.21 153.84 109.14 153.84 109.14 173.86" style="fill:#e6e9ed"/><path d="M82.94,15.24v-4a11.28,11.28,0,0,0-22.57,0v4H40.47V38.35H102.9V15.24Z" style="fill:#f3705b"/><circle cx="71.66" cy="11.28" r="5.64" style="fill:#56c0ec"/><path d="M94.77,135.61H30.49V71.33H94.77Zm-57.93-6.29H88.47V77.68H36.83Z" style="fill:#e6e9ed"/><polygon points="66.99 122.76 43.34 99.11 54.52 87.93 66.99 100.41 101.66 65.8 112.83 76.97 66.99 122.76" style="fill:#56c0ec"/></g></g></svg>